<?xml version="1.0" encoding="UTF-8" standalone="no"?>
<!-- Created with Inkscape (http://www.inkscape.org/) -->

<svg
   xmlns:dc="http://purl.org/dc/elements/1.1/"
   xmlns:cc="http://creativecommons.org/ns#"
   xmlns:rdf="http://www.w3.org/1999/02/22-rdf-syntax-ns#"
   xmlns:svg="http://www.w3.org/2000/svg"
   xmlns="http://www.w3.org/2000/svg"
   xmlns:sodipodi="http://sodipodi.sourceforge.net/DTD/sodipodi-0.dtd"
   xmlns:inkscape="http://www.inkscape.org/namespaces/inkscape"
   width="108.52924mm"
   height="120.05544mm"
   viewBox="0 0 108.52924 120.05544"
   version="1.1"
   id="svg8"
   inkscape:version="0.92.1 r15371"
   sodipodi:docname="mypp0-cut.svg">
  <defs
     id="defs2" />
  <sodipodi:namedview
     id="base"
     pagecolor="#ffffff"
     bordercolor="#666666"
     borderopacity="1.0"
     inkscape:pageopacity="0.0"
     inkscape:pageshadow="2"
     inkscape:zoom="0.98994949"
     inkscape:cx="318.86278"
     inkscape:cy="216.55905"
     inkscape:document-units="mm"
     inkscape:current-layer="layer1"
     showgrid="false"
     inkscape:window-width="1920"
     inkscape:window-height="1013"
     inkscape:window-x="-9"
     inkscape:window-y="-9"
     inkscape:window-maximized="1"
     fit-margin-top="0"
     fit-margin-left="0"
     fit-margin-right="0"
     fit-margin-bottom="0" />
  <metadata
     id="metadata5">
    <rdf:RDF>
      <cc:Work
         rdf:about="">
        <dc:format>image/svg+xml</dc:format>
        <dc:type
           rdf:resource="http://purl.org/dc/dcmitype/StillImage" />
        <dc:title></dc:title>
      </cc:Work>
    </rdf:RDF>
  </metadata>
  <g
     inkscape:label="Layer 1"
     inkscape:groupmode="layer"
     id="layer1"
     transform="translate(-39.622468,-17.687598)">
    <path
       style="opacity:1;vector-effect:none;fill:#ffffff;fill-opacity:1;stroke:#ffffff;stroke-width:0.26458332;stroke-linecap:butt;stroke-linejoin:miter;stroke-miterlimit:4;stroke-dasharray:none;stroke-dashoffset:0;stroke-opacity:1"
       d="m 55.09003,113.68155 c 0,0 -17.040852,20.75162 -12.961646,23.03801 4.079205,2.28639 17.780841,-0.54843 17.780841,-0.54843 l 22.584076,0.66146 39.080639,-0.11303 -0.71605,-11.69873 -3.77977,1.41741 2.38283,-8.99269 z"
       id="path6674"
       inkscape:connector-curvature="0" />
    <g
       id="g4806"
       transform="matrix(0.03527778,0,0,-0.03527778,24.030883,136.89595)"
       style="fill:#000000;stroke:none">
      <path
         id="path4530"
         d="m 1385,3374 c -193,-23 -369,-127 -466,-278 -77,-117 -112,-265 -98,-411 4,-44 7,-80 6,-80 -36,-14 -151,-102 -187,-143 -89,-100 -160,-266 -160,-374 0,-63 -3,-60 67,-61 28,-1 29,-11 3,-44 -43,-55 -11,-80 113,-89 48,-4 87,-10 87,-14 0,-4 -7,-26 -15,-49 -20,-57 -45,-205 -45,-267 0,-28 -10,-77 -21,-110 -17,-46 -22,-84 -23,-174 -1,-122 7,-153 59,-210 15,-17 30,-58 44,-125 12,-55 34,-135 47,-177 l 25,-77 -63,-83 C 637,450 511,224 459,71 434,-1 434,-2 476,2 l 37,3 46,115 c 48,120 169,330 266,463 31,42 58,77 59,77 1,0 20,-25 41,-55 48,-70 127,-142 185,-168 25,-12 48,-23 53,-25 11,-6 8,40 -7,94 -17,60 -27,226 -13,221 6,-2 15,-21 22,-43 26,-86 117,-243 182,-315 15,-16 29,-51 38,-93 17,-82 58,-159 105,-197 51,-43 129,-79 169,-79 43,0 33,10 -40,39 -55,22 -118,77 -150,131 -22,36 -50,110 -42,110 4,0 23,-15 43,-34 65,-62 183,-145 280,-196 90,-49 98,-51 156,-47 48,4 81,15 162,56 55,29 128,70 162,92 34,22 58,34 54,27 C 2251,121 2196,48 2170,26 L 2138,0 h 30 c 42,0 101,63 147,157 30,61 57,97 126,165 48,48 109,115 134,150 84,114 91,103 44,-71 -40,-151 -33,-167 50,-111 24,17 47,30 51,30 8,0 26,-111 38,-240 l 7,-75 h 35 35 l -2,97 c -1,54 -9,127 -18,164 -12,54 -13,70 -3,83 7,9 42,50 77,91 173,201 263,406 321,729 20,110 22,144 16,305 -3,99 -9,197 -12,217 l -6,36 64,12 c 69,14 195,68 216,93 11,14 8,22 -18,51 l -30,35 37,9 c 33,8 38,13 41,41 2,18 -4,58 -13,89 -40,136 -120,246 -217,298 -29,15 -54,29 -56,31 -2,1 13,23 33,50 87,114 129,243 129,394 -1,169 -45,280 -154,391 -112,113 -226,153 -440,153 -183,1 -255,-21 -368,-112 -56,-46 -134,-164 -163,-249 -19,-54 -24,-89 -24,-173 0,-58 4,-122 9,-142 l 8,-37 -33,9 c -19,6 -92,10 -163,10 h -128 l 6,23 c 48,160 14,381 -78,506 -94,128 -271,189 -481,165 z m 905,-782 c 217,-48 344,-105 472,-208 127,-105 193,-192 289,-385 153,-308 170,-715 44,-1085 -70,-206 -239,-445 -381,-539 -30,-20 -57,-35 -59,-33 -1,1 5,35 15,73 10,39 21,87 24,107 6,31 12,38 44,49 70,23 167,77 210,119 53,51 91,126 99,193 3,29 10,57 14,63 13,16 -10,32 -59,40 -34,5 -40,9 -33,23 13,25 49,197 62,296 18,142 6,397 -24,520 -35,139 -76,245 -94,245 -16,0 -15,-25 6,-89 l 11,-35 -38,35 c -147,134 -223,216 -233,251 -12,45 -58,103 -71,90 -6,-6 -1,-26 12,-52 31,-60 37,-139 16,-195 -10,-25 -19,-45 -21,-45 -1,0 -19,15 -40,34 -20,19 -64,49 -97,66 -71,38 -66,40 -202,-59 -54,-39 -103,-71 -110,-71 -42,0 -197,122 -236,185 -16,26 -29,35 -48,35 -30,0 -123,-53 -189,-106 l -42,-35 -7,26 c -18,73 13,184 71,253 14,16 25,35 25,41 0,27 -32,5 -120,-85 -80,-80 -199,-187 -273,-244 -18,-13 -18,-11 -11,26 3,21 10,46 14,54 16,34 20,80 6,80 -46,0 -185,-575 -226,-935 -26,-226 -22,-678 7,-792 8,-34 -7,-28 -70,28 -175,156 -258,412 -244,753 9,210 44,381 119,576 51,134 53,140 39,140 -27,0 -161,-351 -161,-419 0,-12 -9,-20 -25,-23 -29,-6 -31,8 -14,112 22,140 88,304 172,434 274,419 806,610 1357,488 z M 868,2515 c 33,-73 141,-154 205,-155 h 28 l -36,-31 c -54,-47 -151,-173 -202,-260 -52,-89 -69,-99 -170,-99 h -64 l 52,60 c 68,78 59,92 -38,66 -38,-9 -78,-20 -90,-23 -21,-5 -22,-3 -17,28 27,148 73,247 155,329 43,43 140,110 160,110 3,0 11,-11 17,-25 z m 2356,-201 c 96,-33 208,-171 222,-276 l 6,-44 -73,-10 c -94,-12 -100,-27 -29,-78 28,-20 50,-42 47,-49 -11,-33 -222,-76 -230,-46 -32,126 -86,249 -156,360 l -48,76 51,12 c 28,6 74,25 101,40 61,35 52,34 109,15 z M 1580,2172 v -59 l -40,-18 c -81,-37 -167,-162 -178,-261 -4,-35 -1,-44 10,-44 20,0 33,17 47,61 16,49 73,113 129,146 38,23 58,27 121,28 135,0 234,-69 248,-175 6,-40 5,-42 -15,-31 -25,13 -52,14 -52,2 0,-5 15,-24 33,-43 27,-26 36,-47 47,-101 15,-80 7,-173 -20,-235 -26,-57 -95,-137 -136,-157 -18,-8 -36,-20 -40,-26 -11,-18 13,-32 42,-25 31,8 132,107 154,151 8,17 15,31 16,33 1,1 49,-5 108,-14 97,-15 130,-15 113,2 -3,3 -51,13 -106,21 -97,15 -111,22 -93,50 6,9 30,9 106,-3 55,-8 101,-12 104,-9 14,14 -21,25 -111,37 -53,7 -97,15 -97,18 0,3 4,11 9,19 8,13 23,13 102,3 50,-7 94,-11 96,-8 13,13 -12,24 -64,30 -123,14 -133,17 -133,37 0,22 11,23 119,9 40,-5 78,-7 83,-4 22,14 -13,24 -104,30 -84,6 -98,10 -104,26 -3,11 -3,22 0,25 6,6 141,-11 195,-24 17,-4 22,-2 19,8 -6,17 -51,28 -147,37 -73,7 -76,8 -79,34 -2,20 0,26 10,23 35,-14 234,-41 242,-34 5,5 8,11 5,13 -7,7 -182,36 -220,36 -32,0 -36,2 -32,23 l 5,23 96,-18 c 53,-9 112,-17 130,-18 36,0 44,17 10,24 -49,11 -169,26 -202,26 -29,0 -36,4 -36,20 0,11 4,20 9,20 5,0 53,-9 106,-20 107,-22 155,-25 155,-10 0,6 -1,10 -2,10 -2,0 -64,11 -138,24 l -134,23 -8,37 c -7,32 -5,40 14,56 17,14 20,21 12,30 -9,9 -17,9 -34,0 -19,-10 -26,-8 -55,20 -18,17 -54,42 -80,55 l -48,23 42,26 c 23,15 46,26 51,24 4,-2 23,-23 41,-47 40,-53 160,-147 207,-162 48,-16 68,-8 176,71 53,38 103,70 110,70 14,0 130,-73 139,-88 4,-5 -4,-7 -18,-4 -37,7 -126,-41 -175,-94 -48,-53 -77,-112 -82,-169 -3,-35 0,-40 20,-43 14,-2 22,2 22,11 0,28 38,104 71,141 62,71 156,99 260,77 101,-22 159,-82 175,-182 6,-35 5,-41 -8,-37 -8,4 -21,3 -28,-2 -10,-6 -9,-14 8,-35 55,-69 74,-247 38,-344 -22,-60 -78,-133 -125,-164 -27,-18 -38,-32 -35,-42 11,-28 43,-15 99,40 100,97 144,241 115,380 -7,33 -12,74 -11,90 7,125 5,163 -12,202 l -19,40 28,28 28,28 37,-40 c 32,-35 39,-50 55,-139 13,-69 19,-145 19,-249 0,-155 -12,-296 -23,-277 -4,5 -21,12 -37,14 -19,2 -33,11 -40,26 -13,29 -25,28 -25,-2 0,-30 19,-45 64,-53 28,-4 36,-10 35,-27 -1,-34 -14,-62 -23,-48 -9,15 -51,16 -76,2 -27,-15 -60,-73 -60,-108 0,-21 10,-40 31,-61 17,-17 34,-31 38,-31 22,0 18,17 -9,41 -39,36 -40,78 -2,118 22,24 33,29 58,24 l 31,-5 -15,-71 c -22,-113 -23,-112 22,-115 l 38,-3 -6,-42 c -35,-222 -280,-331 -746,-331 -475,1 -866,76 -1060,203 l -55,36 2,214 c 2,118 5,216 7,219 3,2 14,1 25,-3 31,-9 37,-43 12,-69 -32,-34 -26,-50 9,-25 16,12 31,28 34,36 10,24 -14,65 -44,76 -25,9 -30,17 -30,44 0,28 4,33 23,33 33,0 67,27 84,68 23,55 -1,64 -25,9 -18,-41 -54,-68 -70,-53 -8,9 26,231 54,356 34,146 65,266 73,276 3,5 49,43 101,85 52,42 115,95 140,117 25,23 46,41 48,42 1,0 2,-26 2,-58 z m 1251,-233 c -25,-15 -27,-15 -68,21 -23,20 -60,42 -81,49 l -40,14 14,33 c 8,18 14,43 14,55 0,17 19,4 93,-67 l 93,-89 z M 779,1464 c -6,-32 -14,-124 -17,-204 l -7,-145 -25,39 c -19,32 -25,57 -28,125 -4,76 -1,93 22,146 30,66 55,109 62,103 2,-3 -1,-31 -7,-64 z m 491,-815 c 0,-6 7,-9 15,-5 18,7 75,-12 75,-26 0,-5 8,-8 18,-7 33,3 51,-1 66,-16 8,-8 23,-14 33,-13 49,4 75,-2 69,-17 -3,-9 0,-15 8,-15 8,0 16,5 18,11 3,9 10,9 26,0 12,-7 27,-9 32,-6 33,20 94,-51 69,-81 -9,-11 -8,-14 5,-14 21,0 41,-49 28,-70 -6,-10 -5,-18 4,-25 17,-12 35,-104 27,-133 -3,-13 -1,-22 6,-22 6,0 11,-7 11,-15 0,-8 -4,-15 -10,-15 -13,0 -13,-27 0,-32 15,-5 25,-68 11,-68 -8,0 -10,8 -6,20 3,11 2,20 -3,20 -6,0 -12,-6 -14,-12 -5,-15 -77,29 -116,71 -13,14 -31,25 -39,23 -11,-2 -13,2 -8,17 7,22 -4,28 -21,11 -7,-7 -39,16 -102,76 -108,101 -141,142 -122,154 9,5 9,9 1,14 -6,4 -16,4 -23,0 -8,-5 -9,-2 -5,10 5,13 1,19 -13,23 -11,3 -20,9 -20,14 0,4 -12,25 -26,46 -14,21 -21,39 -15,41 6,2 11,8 11,14 0,6 -7,8 -15,4 -10,-3 -15,1 -15,14 0,10 -4,22 -10,25 -24,15 -7,24 20,10 17,-9 30,-20 30,-26 z M 2555,521 c 13,-23 -210,-248 -230,-231 -17,14 -27,0 -13,-18 10,-12 8,-13 -12,-10 -20,2 -24,-1 -22,-16 3,-13 -1,-17 -12,-13 -9,3 -19,0 -23,-7 -17,-27 -107,-87 -125,-83 -10,3 -21,-1 -26,-8 -13,-24 -80,-57 -102,-50 -12,4 -20,2 -20,-6 0,-28 -70,-54 -70,-26 -1,7 -6,5 -14,-6 -7,-9 -19,-17 -26,-17 -7,0 5,19 26,43 75,84 104,119 104,128 0,5 7,9 15,9 9,0 15,9 15,21 0,15 5,19 16,15 11,-4 14,0 12,14 -3,22 71,140 89,140 6,0 9,8 6,19 -4,16 -1,19 19,14 19,-5 21,-3 11,8 -16,17 -16,31 0,53 12,16 16,17 37,5 18,-11 24,-11 27,-1 6,14 33,16 33,2 0,-5 7,-10 15,-10 8,0 15,5 15,10 0,6 7,10 15,10 8,0 15,-4 15,-10 0,-5 7,-10 15,-10 8,0 15,5 15,10 0,18 40,11 40,-7 1,-17 2,-17 15,1 8,11 34,21 67,26 29,4 56,8 60,9 4,0 9,-3 13,-8 z m -445,-56 c 0,-3 -21,-37 -47,-76 -34,-51 -51,-68 -62,-63 -48,19 -82,25 -140,22 l -64,-3 -13,50 c -7,28 -13,50 -14,50 0,0 57,1 128,1 70,1 141,6 157,12 34,12 55,14 55,7 z m -154,-170 35,-15 -28,-37 c -15,-21 -50,-67 -78,-102 l -50,-65 -13,104 c -7,57 -10,110 -8,117 7,18 97,17 142,-2 z"
         inkscape:connector-curvature="0" />
      <path
         id="path4532"
         d="m 1666,2471 c -50,-33 -63,-83 -13,-51 74,46 109,49 146,9 20,-22 41,-19 41,6 0,7 -12,23 -26,34 -35,27 -108,28 -148,2 z"
         inkscape:connector-curvature="0" />
      <path
         id="path4534"
         d="m 2532,2395 c -31,-14 -51,-40 -38,-52 3,-3 24,2 45,12 49,22 85,14 119,-25 24,-27 52,-31 52,-6 0,18 -50,63 -83,75 -37,14 -55,13 -95,-4 z"
         inkscape:connector-curvature="0" />
      <path
         id="path4536"
         d="m 1503,1841 c -48,-35 -115,-132 -139,-203 -12,-33 -19,-82 -19,-129 0,-65 4,-84 30,-133 21,-40 42,-65 67,-80 51,-29 59,-13 16,32 -120,124 -97,319 54,464 33,32 57,62 53,68 -9,15 -18,13 -62,-19 z"
         inkscape:connector-curvature="0" />
      <path
         id="path4538"
         d="m 2410,1713 c -77,-87 -120,-200 -120,-314 0,-82 28,-164 68,-201 59,-55 102,-45 48,11 -43,44 -76,127 -76,191 0,101 63,257 121,303 21,17 30,30 26,41 -10,25 -22,19 -67,-31 z"
         inkscape:connector-curvature="0" />
      <path
         id="path4540"
         d="m 1664,1584 c -11,-42 36,-59 59,-23 15,24 1,49 -27,49 -19,0 -27,-7 -32,-26 z"
         inkscape:connector-curvature="0" />
      <path
         id="path4542"
         d="m 2551,1463 c -12,-24 1,-46 25,-41 13,2 19,12 19,28 0,30 -30,39 -44,13 z"
         inkscape:connector-curvature="0" />
      <path
         id="path4544"
         d="m 1286,1347 c -9,-13 -19,-37 -22,-54 -12,-62 73,-107 137,-73 33,18 22,31 -21,24 -59,-10 -90,1 -90,32 0,14 7,38 15,54 18,36 2,50 -19,17 z"
         inkscape:connector-curvature="0" />
      <path
         id="path4546"
         d="m 1925,1352 c 10,-10 153,-32 212,-32 45,0 42,16 -4,24 -79,13 -218,19 -208,8 z"
         inkscape:connector-curvature="0" />
      <path
         id="path4548"
         d="m 1910,1310 c 0,-5 4,-10 8,-10 4,0 61,-7 127,-15 65,-8 121,-12 124,-10 11,12 -17,20 -112,32 -126,15 -147,16 -147,3 z"
         inkscape:connector-curvature="0" />
      <path
         id="path4550"
         d="m 2123,1225 c -3,-9 -2,-19 1,-23 8,-8 38,10 44,26 6,18 -38,14 -45,-3 z"
         inkscape:connector-curvature="0" />
      <path
         id="path4552"
         d="m 1405,1178 c -50,-29 -57,-64 -20,-98 28,-27 47,-20 22,8 -37,41 -5,76 66,74 27,-1 37,2 35,11 -6,16 -78,20 -103,5 z"
         inkscape:connector-curvature="0" />
      <path
         id="path4554"
         d="m 1802,1168 c -7,-7 -12,-34 -12,-61 0,-42 5,-54 34,-83 40,-40 89,-45 146,-16 l 35,17 27,-27 c 33,-35 94,-38 143,-8 34,21 62,71 50,89 -11,19 -35,12 -45,-13 -30,-79 -141,-70 -125,11 5,28 3,33 -14,33 -11,0 -25,-9 -31,-21 -16,-29 -70,-59 -107,-59 -56,0 -80,36 -74,112 2,30 -11,42 -27,26 z"
         inkscape:connector-curvature="0" />
      <path
         id="path4556"
         d="m 2790,1150 c -14,-26 -61,-50 -99,-50 -16,0 -33,-4 -36,-10 -10,-16 42,-23 79,-10 47,15 110,90 76,90 -5,0 -14,-9 -20,-20 z"
         inkscape:connector-curvature="0" />
      <path
         id="path4558"
         d="m 1224,1106 c -32,-14 -50,-33 -41,-43 3,-3 16,2 29,11 25,18 83,22 93,6 9,-15 25,-12 25,5 0,17 -30,35 -57,35 -10,-1 -32,-7 -49,-14 z"
         inkscape:connector-curvature="0" />
      <path
         id="path4560"
         d="m 2645,1030 c -3,-6 5,-10 19,-10 40,0 74,-21 85,-51 12,-34 31,-39 31,-8 0,34 -53,79 -94,79 -19,0 -38,-4 -41,-10 z"
         inkscape:connector-curvature="0" />
      <path
         id="path4562"
         d="m 1300,620 c 0,-5 5,-10 10,-10 6,0 10,5 10,10 0,6 -4,10 -10,10 -5,0 -10,-4 -10,-10 z"
         inkscape:connector-curvature="0" />
      <path
         id="path4564"
         d="m 1270,590 c 0,-5 5,-10 10,-10 6,0 10,5 10,10 0,6 -4,10 -10,10 -5,0 -10,-4 -10,-10 z"
         inkscape:connector-curvature="0" />
      <path
         id="path4566"
         d="m 1330,590 c 0,-5 7,-10 16,-10 8,0 12,5 9,10 -3,6 -10,10 -16,10 -5,0 -9,-4 -9,-10 z"
         inkscape:connector-curvature="0" />
      <path
         id="path4568"
         d="m 1390,590 c 0,-5 7,-10 16,-10 8,0 12,5 9,10 -3,6 -10,10 -16,10 -5,0 -9,-4 -9,-10 z"
         inkscape:connector-curvature="0" />
      <path
         id="path4570"
         d="m 1300,560 c 0,-5 7,-10 16,-10 8,0 12,5 9,10 -3,6 -10,10 -16,10 -5,0 -9,-4 -9,-10 z"
         inkscape:connector-curvature="0" />
      <path
         id="path4572"
         d="m 1360,560 c 0,-5 7,-10 16,-10 8,0 12,5 9,10 -3,6 -10,10 -16,10 -5,0 -9,-4 -9,-10 z"
         inkscape:connector-curvature="0" />
      <path
         id="path4574"
         d="m 1420,560 c 0,-5 7,-10 15,-10 8,0 15,5 15,10 0,6 -7,10 -15,10 -8,0 -15,-4 -15,-10 z"
         inkscape:connector-curvature="0" />
      <path
         id="path4576"
         d="m 1480,560 c 0,-5 7,-10 15,-10 8,0 15,5 15,10 0,6 -7,10 -15,10 -8,0 -15,-4 -15,-10 z"
         inkscape:connector-curvature="0" />
      <path
         id="path4578"
         d="m 1330,530 c 0,-5 7,-10 16,-10 8,0 12,5 9,10 -3,6 -10,10 -16,10 -5,0 -9,-4 -9,-10 z"
         inkscape:connector-curvature="0" />
      <path
         id="path4580"
         d="m 1390,530 c 0,-5 7,-10 16,-10 8,0 12,5 9,10 -3,6 -10,10 -16,10 -5,0 -9,-4 -9,-10 z"
         inkscape:connector-curvature="0" />
      <path
         id="path4582"
         d="m 1450,530 c 0,-5 7,-10 15,-10 8,0 15,5 15,10 0,6 -7,10 -15,10 -8,0 -15,-4 -15,-10 z"
         inkscape:connector-curvature="0" />
      <path
         id="path4584"
         d="m 1510,530 c 0,-5 7,-10 15,-10 8,0 15,5 15,10 0,6 -7,10 -15,10 -8,0 -15,-4 -15,-10 z"
         inkscape:connector-curvature="0" />
      <path
         id="path4586"
         d="m 1570,530 c 0,-5 7,-10 15,-10 8,0 15,5 15,10 0,6 -7,10 -15,10 -8,0 -15,-4 -15,-10 z"
         inkscape:connector-curvature="0" />
      <path
         id="path4588"
         d="m 1640,530 c 0,-5 5,-10 10,-10 6,0 10,5 10,10 0,6 -4,10 -10,10 -5,0 -10,-4 -10,-10 z"
         inkscape:connector-curvature="0" />
      <path
         id="path4590"
         d="m 1360,500 c 0,-5 7,-10 16,-10 8,0 12,5 9,10 -3,6 -10,10 -16,10 -5,0 -9,-4 -9,-10 z"
         inkscape:connector-curvature="0" />
      <path
         id="path4592"
         d="m 1420,500 c 0,-5 7,-10 15,-10 8,0 15,5 15,10 0,6 -7,10 -15,10 -8,0 -15,-4 -15,-10 z"
         inkscape:connector-curvature="0" />
      <path
         id="path4594"
         d="m 1480,500 c 0,-5 7,-10 15,-10 8,0 15,5 15,10 0,6 -7,10 -15,10 -8,0 -15,-4 -15,-10 z"
         inkscape:connector-curvature="0" />
      <path
         id="path4596"
         d="m 1540,500 c 0,-5 7,-10 15,-10 8,0 15,5 15,10 0,6 -7,10 -15,10 -8,0 -15,-4 -15,-10 z"
         inkscape:connector-curvature="0" />
      <path
         id="path4598"
         d="m 1605,500 c -3,-5 1,-10 9,-10 9,0 16,5 16,10 0,6 -4,10 -9,10 -6,0 -13,-4 -16,-10 z"
         inkscape:connector-curvature="0" />
      <path
         id="path4600"
         d="m 1670,500 c 0,-5 5,-10 10,-10 6,0 10,5 10,10 0,6 -4,10 -10,10 -5,0 -10,-4 -10,-10 z"
         inkscape:connector-curvature="0" />
      <path
         id="path4602"
         d="m 1390,470 c 0,-5 7,-10 16,-10 8,0 12,5 9,10 -3,6 -10,10 -16,10 -5,0 -9,-4 -9,-10 z"
         inkscape:connector-curvature="0" />
      <path
         id="path4604"
         d="m 1450,470 c 0,-5 7,-10 15,-10 8,0 15,5 15,10 0,6 -7,10 -15,10 -8,0 -15,-4 -15,-10 z"
         inkscape:connector-curvature="0" />
      <path
         id="path4606"
         d="m 1515,470 c -3,-5 1,-10 9,-10 9,0 16,5 16,10 0,6 -4,10 -9,10 -6,0 -13,-4 -16,-10 z"
         inkscape:connector-curvature="0" />
      <path
         id="path4608"
         d="m 1575,470 c -3,-5 1,-10 9,-10 9,0 16,5 16,10 0,6 -4,10 -9,10 -6,0 -13,-4 -16,-10 z"
         inkscape:connector-curvature="0" />
      <path
         id="path4610"
         d="m 1635,470 c -3,-5 1,-10 9,-10 9,0 16,5 16,10 0,6 -4,10 -9,10 -6,0 -13,-4 -16,-10 z"
         inkscape:connector-curvature="0" />
      <path
         id="path4612"
         d="m 1362,441 c 2,-7 7,-12 11,-12 12,1 9,15 -3,20 -7,2 -11,-2 -8,-8 z"
         inkscape:connector-curvature="0" />
      <path
         id="path4614"
         d="m 1420,440 c 0,-5 7,-10 15,-10 8,0 15,5 15,10 0,6 -7,10 -15,10 -8,0 -15,-4 -15,-10 z"
         inkscape:connector-curvature="0" />
      <path
         id="path4616"
         d="m 1485,440 c -3,-5 1,-10 9,-10 9,0 16,5 16,10 0,6 -4,10 -9,10 -6,0 -13,-4 -16,-10 z"
         inkscape:connector-curvature="0" />
      <path
         id="path4618"
         d="m 1545,440 c -3,-5 1,-10 9,-10 9,0 16,5 16,10 0,6 -4,10 -9,10 -6,0 -13,-4 -16,-10 z"
         inkscape:connector-curvature="0" />
      <path
         id="path4620"
         d="m 1605,440 c -3,-5 1,-10 9,-10 9,0 16,5 16,10 0,6 -4,10 -9,10 -6,0 -13,-4 -16,-10 z"
         inkscape:connector-curvature="0" />
      <path
         id="path4622"
         d="m 1670,440 c 0,-5 5,-10 10,-10 6,0 10,5 10,10 0,6 -4,10 -10,10 -5,0 -10,-4 -10,-10 z"
         inkscape:connector-curvature="0" />
      <path
         id="path4624"
         d="m 1392,411 c 2,-7 7,-12 11,-12 12,1 9,15 -3,20 -7,2 -11,-2 -8,-8 z"
         inkscape:connector-curvature="0" />
      <path
         id="path4626"
         d="m 1450,410 c 0,-5 7,-10 16,-10 8,0 12,5 9,10 -3,6 -10,10 -16,10 -5,0 -9,-4 -9,-10 z"
         inkscape:connector-curvature="0" />
      <path
         id="path4628"
         d="m 1515,411 c -6,-11 9,-23 19,-14 9,9 7,23 -3,23 -6,0 -12,-4 -16,-9 z"
         inkscape:connector-curvature="0" />
      <path
         id="path4630"
         d="m 1575,411 c -6,-11 9,-23 19,-14 9,9 7,23 -3,23 -6,0 -12,-4 -16,-9 z"
         inkscape:connector-curvature="0" />
      <path
         id="path4632"
         d="m 1640,410 c 0,-5 5,-10 10,-10 6,0 10,5 10,10 0,6 -4,10 -10,10 -5,0 -10,-4 -10,-10 z"
         inkscape:connector-curvature="0" />
      <path
         id="path4634"
         d="m 1700,410 c 0,-5 5,-10 10,-10 6,0 10,5 10,10 0,6 -4,10 -10,10 -5,0 -10,-4 -10,-10 z"
         inkscape:connector-curvature="0" />
      <path
         id="path4636"
         d="m 1422,381 c 2,-7 7,-12 11,-12 12,1 9,15 -3,20 -7,2 -11,-2 -8,-8 z"
         inkscape:connector-curvature="0" />
      <path
         id="path4638"
         d="m 1486,381 c -4,-5 -2,-12 3,-15 5,-4 12,-2 15,3 4,5 2,12 -3,15 -5,4 -12,2 -15,-3 z"
         inkscape:connector-curvature="0" />
      <path
         id="path4640"
         d="m 1545,381 c -6,-11 9,-23 19,-14 9,9 7,23 -3,23 -6,0 -12,-4 -16,-9 z"
         inkscape:connector-curvature="0" />
      <path
         id="path4642"
         d="m 1605,381 c -6,-11 9,-23 19,-14 9,9 7,23 -3,23 -6,0 -12,-4 -16,-9 z"
         inkscape:connector-curvature="0" />
      <path
         id="path4644"
         d="m 1670,380 c 0,-5 5,-10 10,-10 6,0 10,5 10,10 0,6 -4,10 -10,10 -5,0 -10,-4 -10,-10 z"
         inkscape:connector-curvature="0" />
      <path
         id="path4646"
         d="m 1456,351 c -4,-5 -2,-12 3,-15 5,-4 12,-2 15,3 4,5 2,12 -3,15 -5,4 -12,2 -15,-3 z"
         inkscape:connector-curvature="0" />
      <path
         id="path4648"
         d="m 1516,351 c -4,-5 -2,-12 3,-15 5,-4 12,-2 15,3 4,5 2,12 -3,15 -5,4 -12,2 -15,-3 z"
         inkscape:connector-curvature="0" />
      <path
         id="path4650"
         d="m 1575,351 c -6,-11 9,-23 19,-14 9,9 7,23 -3,23 -6,0 -12,-4 -16,-9 z"
         inkscape:connector-curvature="0" />
      <path
         id="path4652"
         d="m 1635,351 c -6,-11 9,-23 19,-14 9,9 7,23 -3,23 -6,0 -12,-4 -16,-9 z"
         inkscape:connector-curvature="0" />
      <path
         id="path4654"
         d="m 1700,344 c 0,-8 5,-12 10,-9 6,3 10,10 10,16 0,5 -4,9 -10,9 -5,0 -10,-7 -10,-16 z"
         inkscape:connector-curvature="0" />
      <path
         id="path4656"
         d="m 1486,321 c -4,-5 -2,-12 3,-15 5,-4 12,-2 15,3 4,5 2,12 -3,15 -5,4 -12,2 -15,-3 z"
         inkscape:connector-curvature="0" />
      <path
         id="path4658"
         d="m 1546,321 c -4,-5 -2,-12 3,-15 5,-4 12,-2 15,3 4,5 2,12 -3,15 -5,4 -12,2 -15,-3 z"
         inkscape:connector-curvature="0" />
      <path
         id="path4660"
         d="m 1606,321 c -4,-5 -2,-12 3,-15 5,-4 12,-2 15,3 4,5 2,12 -3,15 -5,4 -12,2 -15,-3 z"
         inkscape:connector-curvature="0" />
      <path
         id="path4662"
         d="m 1665,321 c -6,-11 9,-23 19,-14 9,9 7,23 -3,23 -6,0 -12,-4 -16,-9 z"
         inkscape:connector-curvature="0" />
      <path
         id="path4664"
         d="m 1730,314 c 0,-8 5,-12 10,-9 6,3 10,10 10,16 0,5 -4,9 -10,9 -5,0 -10,-7 -10,-16 z"
         inkscape:connector-curvature="0" />
      <path
         id="path4666"
         d="m 1516,291 c -4,-5 -2,-12 3,-15 5,-4 12,-2 15,3 4,5 2,12 -3,15 -5,4 -12,2 -15,-3 z"
         inkscape:connector-curvature="0" />
      <path
         id="path4668"
         d="m 1575,291 c -6,-11 9,-23 19,-14 9,9 7,23 -3,23 -6,0 -12,-4 -16,-9 z"
         inkscape:connector-curvature="0" />
      <path
         id="path4670"
         d="m 1635,291 c -6,-11 9,-23 19,-14 9,9 7,23 -3,23 -6,0 -12,-4 -16,-9 z"
         inkscape:connector-curvature="0" />
      <path
         id="path4672"
         d="m 1700,284 c 0,-8 5,-12 10,-9 6,3 10,10 10,16 0,5 -4,9 -10,9 -5,0 -10,-7 -10,-16 z"
         inkscape:connector-curvature="0" />
      <path
         id="path4674"
         d="m 1545,261 c -6,-11 9,-23 19,-14 9,9 7,23 -3,23 -6,0 -12,-4 -16,-9 z"
         inkscape:connector-curvature="0" />
      <path
         id="path4676"
         d="m 1606,261 c -4,-5 -2,-12 3,-15 5,-4 12,-2 15,3 4,5 2,12 -3,15 -5,4 -12,2 -15,-3 z"
         inkscape:connector-curvature="0" />
      <path
         id="path4678"
         d="m 1670,254 c 0,-8 5,-12 10,-9 6,4 8,11 5,16 -9,14 -15,11 -15,-7 z"
         inkscape:connector-curvature="0" />
      <path
         id="path4680"
         d="m 1730,254 c 0,-8 5,-12 10,-9 6,3 10,10 10,16 0,5 -4,9 -10,9 -5,0 -10,-7 -10,-16 z"
         inkscape:connector-curvature="0" />
      <path
         id="path4682"
         d="m 1636,231 c -4,-5 -2,-12 3,-15 5,-4 12,-2 15,3 4,5 2,12 -3,15 -5,4 -12,2 -15,-3 z"
         inkscape:connector-curvature="0" />
      <path
         id="path4684"
         d="m 1700,224 c 0,-8 5,-12 10,-9 6,3 10,10 10,16 0,5 -4,9 -10,9 -5,0 -10,-7 -10,-16 z"
         inkscape:connector-curvature="0" />
      <path
         id="path4686"
         d="m 1670,194 c 0,-8 5,-12 10,-9 6,4 8,11 5,16 -9,14 -15,11 -15,-7 z"
         inkscape:connector-curvature="0" />
      <path
         id="path4688"
         d="m 1730,196 c 0,-9 5,-16 10,-16 6,0 10,4 10,9 0,6 -4,13 -10,16 -5,3 -10,-1 -10,-9 z"
         inkscape:connector-curvature="0" />
      <path
         id="path4690"
         d="m 1700,165 c 0,-8 5,-15 10,-15 6,0 10,7 10,15 0,8 -4,15 -10,15 -5,0 -10,-7 -10,-15 z"
         inkscape:connector-curvature="0" />
      <path
         id="path4692"
         d="m 1730,136 c 0,-9 5,-16 10,-16 6,0 10,4 10,9 0,6 -4,13 -10,16 -5,3 -10,-1 -10,-9 z"
         inkscape:connector-curvature="0" />
      <path
         id="path4694"
         d="m 2460,500 c 0,-5 5,-10 10,-10 6,0 10,5 10,10 0,6 -4,10 -10,10 -5,0 -10,-4 -10,-10 z"
         inkscape:connector-curvature="0" />
      <path
         id="path4696"
         d="m 2520,500 c 0,-5 5,-10 10,-10 6,0 10,5 10,10 0,6 -4,10 -10,10 -5,0 -10,-4 -10,-10 z"
         inkscape:connector-curvature="0" />
      <path
         id="path4698"
         d="m 2180,470 c 0,-5 7,-10 16,-10 8,0 12,5 9,10 -3,6 -10,10 -16,10 -5,0 -9,-4 -9,-10 z"
         inkscape:connector-curvature="0" />
      <path
         id="path4700"
         d="m 2240,470 c 0,-5 7,-10 15,-10 8,0 15,5 15,10 0,6 -7,10 -15,10 -8,0 -15,-4 -15,-10 z"
         inkscape:connector-curvature="0" />
      <path
         id="path4702"
         d="m 2300,470 c 0,-5 7,-10 15,-10 8,0 15,5 15,10 0,6 -7,10 -15,10 -8,0 -15,-4 -15,-10 z"
         inkscape:connector-curvature="0" />
      <path
         id="path4704"
         d="m 2365,470 c -3,-5 1,-10 9,-10 9,0 16,5 16,10 0,6 -4,10 -9,10 -6,0 -13,-4 -16,-10 z"
         inkscape:connector-curvature="0" />
      <path
         id="path4706"
         d="m 2425,470 c -3,-5 1,-10 9,-10 9,0 16,5 16,10 0,6 -4,10 -9,10 -6,0 -13,-4 -16,-10 z"
         inkscape:connector-curvature="0" />
      <path
         id="path4708"
         d="m 2485,470 c -3,-5 1,-10 9,-10 9,0 16,5 16,10 0,6 -4,10 -9,10 -6,0 -13,-4 -16,-10 z"
         inkscape:connector-curvature="0" />
      <path
         id="path4710"
         d="m 2210,440 c 0,-5 7,-10 16,-10 8,0 12,5 9,10 -3,6 -10,10 -16,10 -5,0 -9,-4 -9,-10 z"
         inkscape:connector-curvature="0" />
      <path
         id="path4712"
         d="m 2270,440 c 0,-5 7,-10 15,-10 8,0 15,5 15,10 0,6 -7,10 -15,10 -8,0 -15,-4 -15,-10 z"
         inkscape:connector-curvature="0" />
      <path
         id="path4714"
         d="m 2335,440 c -3,-5 1,-10 9,-10 9,0 16,5 16,10 0,6 -4,10 -9,10 -6,0 -13,-4 -16,-10 z"
         inkscape:connector-curvature="0" />
      <path
         id="path4716"
         d="m 2395,440 c -3,-5 1,-10 9,-10 9,0 16,5 16,10 0,6 -4,10 -9,10 -6,0 -13,-4 -16,-10 z"
         inkscape:connector-curvature="0" />
      <path
         id="path4718"
         d="m 2460,440 c 0,-5 5,-10 10,-10 6,0 10,5 10,10 0,6 -4,10 -10,10 -5,0 -10,-4 -10,-10 z"
         inkscape:connector-curvature="0" />
      <path
         id="path4720"
         d="m 2182,411 c 2,-7 7,-12 11,-12 12,1 9,15 -3,20 -7,2 -11,-2 -8,-8 z"
         inkscape:connector-curvature="0" />
      <path
         id="path4722"
         d="m 2242,411 c 2,-7 7,-12 11,-12 12,1 9,15 -3,20 -7,2 -11,-2 -8,-8 z"
         inkscape:connector-curvature="0" />
      <path
         id="path4724"
         d="m 2302,409 c 2,-6 8,-10 13,-10 5,0 11,4 13,10 2,6 -4,11 -13,11 -9,0 -15,-5 -13,-11 z"
         inkscape:connector-curvature="0" />
      <path
         id="path4726"
         d="m 2365,411 c -6,-11 9,-23 19,-14 9,9 7,23 -3,23 -6,0 -12,-4 -16,-9 z"
         inkscape:connector-curvature="0" />
      <path
         id="path4728"
         d="m 2425,411 c -6,-11 9,-23 19,-14 9,9 7,23 -3,23 -6,0 -12,-4 -16,-9 z"
         inkscape:connector-curvature="0" />
      <path
         id="path4730"
         d="m 2152,381 c 4,-13 18,-16 19,-4 0,4 -5,9 -11,12 -7,2 -11,-2 -8,-8 z"
         inkscape:connector-curvature="0" />
      <path
         id="path4732"
         d="m 2212,381 c 4,-13 18,-16 19,-4 0,4 -5,9 -11,12 -7,2 -11,-2 -8,-8 z"
         inkscape:connector-curvature="0" />
      <path
         id="path4734"
         d="m 2270,380 c 0,-5 7,-10 16,-10 8,0 12,5 9,10 -3,6 -10,10 -16,10 -5,0 -9,-4 -9,-10 z"
         inkscape:connector-curvature="0" />
      <path
         id="path4736"
         d="m 2335,380 c -3,-5 1,-10 9,-10 9,0 16,5 16,10 0,6 -4,10 -9,10 -6,0 -13,-4 -16,-10 z"
         inkscape:connector-curvature="0" />
      <path
         id="path4738"
         d="m 2395,380 c -3,-5 1,-10 9,-10 9,0 16,5 16,10 0,6 -4,10 -9,10 -6,0 -13,-4 -16,-10 z"
         inkscape:connector-curvature="0" />
      <path
         id="path4740"
         d="m 2122,351 c 2,-7 7,-12 11,-12 12,1 9,15 -3,20 -7,2 -11,-2 -8,-8 z"
         inkscape:connector-curvature="0" />
      <path
         id="path4742"
         d="m 2182,351 c 2,-7 7,-12 11,-12 12,1 9,15 -3,20 -7,2 -11,-2 -8,-8 z"
         inkscape:connector-curvature="0" />
      <path
         id="path4744"
         d="m 2242,351 c 2,-7 7,-12 11,-12 12,1 9,15 -3,20 -7,2 -11,-2 -8,-8 z"
         inkscape:connector-curvature="0" />
      <path
         id="path4746"
         d="m 2306,351 c -4,-5 -2,-12 3,-15 5,-4 12,-2 15,3 4,5 2,12 -3,15 -5,4 -12,2 -15,-3 z"
         inkscape:connector-curvature="0" />
      <path
         id="path4748"
         d="m 2366,351 c -4,-5 -2,-12 3,-15 5,-4 12,-2 15,3 4,5 2,12 -3,15 -5,4 -12,2 -15,-3 z"
         inkscape:connector-curvature="0" />
      <path
         id="path4750"
         d="m 2092,321 c 4,-13 18,-16 19,-4 0,4 -5,9 -11,12 -7,2 -11,-2 -8,-8 z"
         inkscape:connector-curvature="0" />
      <path
         id="path4752"
         d="m 2152,321 c 4,-13 18,-16 19,-4 0,4 -5,9 -11,12 -7,2 -11,-2 -8,-8 z"
         inkscape:connector-curvature="0" />
      <path
         id="path4754"
         d="m 2212,321 c 4,-13 18,-16 19,-4 0,4 -5,9 -11,12 -7,2 -11,-2 -8,-8 z"
         inkscape:connector-curvature="0" />
      <path
         id="path4756"
         d="m 2272,321 c 2,-7 7,-12 11,-12 12,1 9,15 -3,20 -7,2 -11,-2 -8,-8 z"
         inkscape:connector-curvature="0" />
      <path
         id="path4758"
         d="m 2335,321 c -6,-11 9,-23 19,-14 9,9 7,23 -3,23 -6,0 -12,-4 -16,-9 z"
         inkscape:connector-curvature="0" />
      <path
         id="path4760"
         d="m 2060,291 c 0,-6 5,-13 10,-16 6,-3 10,1 10,9 0,9 -4,16 -10,16 -5,0 -10,-4 -10,-9 z"
         inkscape:connector-curvature="0" />
      <path
         id="path4762"
         d="m 2120,291 c 0,-6 5,-13 10,-16 6,-3 10,1 10,9 0,9 -4,16 -10,16 -5,0 -10,-4 -10,-9 z"
         inkscape:connector-curvature="0" />
      <path
         id="path4764"
         d="m 2186,291 c -4,-5 -2,-12 3,-15 5,-4 12,-2 15,3 4,5 2,12 -3,15 -5,4 -12,2 -15,-3 z"
         inkscape:connector-curvature="0" />
      <path
         id="path4766"
         d="m 2246,291 c -4,-5 -2,-12 3,-15 5,-4 12,-2 15,3 4,5 2,12 -3,15 -5,4 -12,2 -15,-3 z"
         inkscape:connector-curvature="0" />
      <path
         id="path4768"
         d="m 2090,261 c 0,-6 5,-13 10,-16 6,-3 10,1 10,9 0,9 -4,16 -10,16 -5,0 -10,-4 -10,-9 z"
         inkscape:connector-curvature="0" />
      <path
         id="path4770"
         d="m 2152,261 c 2,-7 7,-12 11,-12 12,1 9,15 -3,20 -7,2 -11,-2 -8,-8 z"
         inkscape:connector-curvature="0" />
      <path
         id="path4772"
         d="m 2216,261 c -4,-5 -2,-12 3,-15 5,-4 12,-2 15,3 4,5 2,12 -3,15 -5,4 -12,2 -15,-3 z"
         inkscape:connector-curvature="0" />
      <path
         id="path4774"
         d="m 2066,231 c -4,-7 -5,-15 -2,-18 9,-9 19,4 14,18 -4,11 -6,11 -12,0 z"
         inkscape:connector-curvature="0" />
      <path
         id="path4776"
         d="m 2120,225 c 0,-8 5,-15 10,-15 6,0 10,7 10,15 0,8 -4,15 -10,15 -5,0 -10,-7 -10,-15 z"
         inkscape:connector-curvature="0" />
      <path
         id="path4778"
         d="m 2186,231 c -4,-5 -2,-12 3,-15 5,-4 12,-2 15,3 4,5 2,12 -3,15 -5,4 -12,2 -15,-3 z"
         inkscape:connector-curvature="0" />
      <path
         id="path4780"
         d="m 2030,195 c 0,-8 5,-15 10,-15 6,0 10,7 10,15 0,8 -4,15 -10,15 -5,0 -10,-7 -10,-15 z"
         inkscape:connector-curvature="0" />
      <path
         id="path4782"
         d="m 2090,201 c 0,-6 5,-13 10,-16 6,-3 10,1 10,9 0,9 -4,16 -10,16 -5,0 -10,-4 -10,-9 z"
         inkscape:connector-curvature="0" />
      <path
         id="path4784"
         d="m 2152,201 c 2,-7 7,-12 11,-12 12,1 9,15 -3,20 -7,2 -11,-2 -8,-8 z"
         inkscape:connector-curvature="0" />
      <path
         id="path4786"
         d="m 2006,171 c -4,-7 -5,-15 -2,-18 9,-9 19,4 14,18 -4,11 -6,11 -12,0 z"
         inkscape:connector-curvature="0" />
      <path
         id="path4788"
         d="m 2066,171 c -4,-7 -5,-15 -2,-18 9,-9 19,4 14,18 -4,11 -6,11 -12,0 z"
         inkscape:connector-curvature="0" />
      <path
         id="path4790"
         d="m 2126,171 c -4,-7 -5,-15 -2,-18 9,-9 19,4 14,18 -4,11 -6,11 -12,0 z"
         inkscape:connector-curvature="0" />
      <path
         id="path4792"
         d="m 1976,141 c -4,-7 -5,-15 -2,-18 9,-9 19,4 14,18 -4,11 -6,11 -12,0 z"
         inkscape:connector-curvature="0" />
      <path
         id="path4794"
         d="m 2036,141 c -4,-7 -5,-15 -2,-18 9,-9 19,4 14,18 -4,11 -6,11 -12,0 z"
         inkscape:connector-curvature="0" />
      <path
         id="path4796"
         d="m 1940,105 c 0,-8 5,-15 10,-15 6,0 10,7 10,15 0,8 -4,15 -10,15 -5,0 -10,-7 -10,-15 z"
         inkscape:connector-curvature="0" />
      <path
         id="path4798"
         d="m 2006,111 c -4,-7 -5,-15 -2,-18 9,-9 19,4 14,18 -4,11 -6,11 -12,0 z"
         inkscape:connector-curvature="0" />
      <path
         id="path4800"
         d="m 1910,75 c 0,-8 5,-15 10,-15 6,0 10,7 10,15 0,8 -4,15 -10,15 -5,0 -10,-7 -10,-15 z"
         inkscape:connector-curvature="0" />
      <path
         id="path4802"
         d="M 1176,373 C 1129,299 1089,223 1040,117 990,7 988,0 1008,0 c 11,0 33,32 67,97 28,53 78,148 112,211 34,64 60,119 57,124 -11,18 -26,5 -68,-59 z"
         inkscape:connector-curvature="0" />
      <path
         id="path4804"
         d="m 2496,238 c -3,-18 -7,-77 -10,-131 -5,-83 -3,-99 10,-104 27,-10 34,18 34,145 0,100 -3,122 -15,122 -8,0 -16,-13 -19,-32 z"
         inkscape:connector-curvature="0" />
    </g>
    <path
       style="opacity:1;vector-effect:none;fill:#ffffff;fill-opacity:1;stroke:#000000;stroke-width:0.26458332;stroke-linecap:butt;stroke-linejoin:miter;stroke-miterlimit:4;stroke-dasharray:none;stroke-dashoffset:0;stroke-opacity:1"
       d="m 117.97931,124.19042 c 0.003,-0.19315 0.33787,-1.78978 0.74372,-3.54804 l 0.73792,-3.19683 2.1622,-0.94583 c 6.2636,-2.73997 9.17858,-5.82875 10.00141,-10.59774 0.14931,-0.86538 0.33918,-1.94798 0.42193,-2.40577 0.13603,-0.75249 0.0669,-0.86147 -0.72031,-1.1359 -0.47892,-0.16695 -1.0633,-0.30539 -1.29861,-0.30764 -1.06373,-0.0102 -1.13112,-0.34044 -0.56009,-2.744791 1.21603,-5.12012 1.64903,-8.13624 1.7935,-12.49296 0.24273,-7.3194 -0.45591,-12.9949 -2.30209,-18.70139 -0.93394,-2.88679 -1.69109,-4.27631 -2.33017,-4.27631 -0.45597,0 -0.45033,0.25525 0.0588,2.664 l 0.1959,0.92675 -1.04729,-0.83265 c -0.57602,-0.45796 -2.44972,-2.26708 -4.16379,-4.02027 -2.4332,-2.48873 -3.28924,-3.56414 -3.90438,-4.90495 -0.86191,-1.87865 -2.03713,-3.18976 -2.4706,-2.75628 -0.17328,0.17328 0.009,1.03744 0.5328,2.52216 0.43802,1.24221 0.79878,2.81604 0.80168,3.4974 0.006,1.46735 -0.74516,3.97291 -1.19146,3.97291 -0.17254,0 -0.60528,-0.31196 -0.96166,-0.69326 -0.35637,-0.3813 -1.60508,-1.28333 -2.77492,-2.00452 -2.46173,-1.51763 -3.55434,-1.66951 -4.98518,-0.69298 -0.49826,0.34005 -2.0485,1.40626 -3.44499,2.36935 -3.568278,2.46089 -3.567003,2.46036 -4.607982,1.93129 -2.246792,-1.14193 -4.687957,-3.26071 -7.745926,-6.72299 -0.301445,-0.3413 -0.836843,-0.59973 -1.238067,-0.59759 -0.920369,0.005 -4.265301,1.83644 -6.359472,3.48219 -1.883201,1.47995 -1.964651,1.4339 -1.964651,-1.11082 0,-2.07966 0.820698,-4.46089 2.294594,-6.6577 1.242716,-1.85223 1.424982,-2.39917 0.799515,-2.39917 -0.530368,0 -1.62942,0.93562 -5.636993,4.79876 -3.761062,3.62551 -8.090106,7.37525 -8.287162,7.17819 -0.0673,-0.0673 0.06257,-0.7751 0.288583,-1.57289 0.668565,-2.35988 0.797251,-3.98959 0.315027,-3.98959 -1.100061,0 -3.436245,7.79335 -5.794746,19.33088 -1.591519,7.78555 -2.385298,13.74249 -2.712849,20.35864 -0.372849,7.531111 0.03066,19.558281 0.7161,21.344501 0.346421,0.90276 -0.492371,0.37794 -2.57311,-1.61001 -6.066137,-5.79554 -8.515326,-13.37612 -8.189357,-25.347151 0.234598,-8.6155 1.255554,-13.41512 4.96425,-23.3375 0.949179,-2.53947 0.97817,-2.72128 0.433914,-2.72128 -0.960567,0 -4.893358,9.87762 -5.879364,14.76665 -0.113843,0.56447 -0.302067,0.73499 -0.811313,0.73499 -0.813422,0 -0.841188,-0.44198 -0.242716,-3.86349 1.508091,-8.62188 6.640753,-17.75494 12.998752,-23.12999 7.832867,-6.621901 16.709278,-9.946882 27.606754,-10.341109 8.653919,-0.313066 18.998799,1.914051 25.135889,5.411429 6.22453,3.5472 10.38812,8.10286 14.16371,15.49746 5.94466,11.64276 6.69428,25.89149 2.0734,39.410871 -1.84869,5.40876 -5.75159,11.59266 -9.95235,15.76892 -2.75305,2.73696 -5.10117,4.44058 -5.0888,3.69205 z m 1.79123,-69.081151 c 0.16368,-0.49752 -1.56592,-2.27181 -2.73018,-2.80073 -0.58926,-0.26769 -1.42428,-0.48935 -1.85562,-0.49258 -1.20684,-0.009 -3.06497,0.99943 -3.25791,1.76816 -0.0906,0.36096 -0.10912,0.71188 -0.0412,0.77983 0.0679,0.0679 0.86706,-0.11398 1.7758,-0.40429 1.89551,-0.60554 2.50402,-0.48093 3.98,0.81499 0.91027,0.79923 1.92382,0.95852 2.12909,0.33462 z m -36.716862,-3.83372 c 1.797275,-1.01432 3.047981,-1.04838 4.159305,-0.11326 1.443257,1.21442 2.594854,0.25386 1.276361,-1.06463 -1.310018,-1.31002 -3.956539,-1.504938 -5.736468,-0.422499 -0.96624,0.587599 -1.785459,1.719849 -1.536192,2.123179 0.23582,0.38156 0.233301,0.38228 1.836994,-0.52279 z"
       id="path4955"
       inkscape:connector-curvature="0" />
    <path
       style="opacity:1;vector-effect:none;fill:#ffffff;fill-opacity:1;stroke:#000000;stroke-width:1;stroke-linecap:butt;stroke-linejoin:miter;stroke-miterlimit:4;stroke-dasharray:none;stroke-dashoffset:0;stroke-opacity:1"
       d="M 366.16944,440.99431 C 314.3554,438.56548 274.56851,429.53328 249.74935,414.56528 l -6.81852,-4.11213 0.10069,-26.90569 c 0.0554,-14.79813 0.3963,-27.91599 0.75761,-29.1508 0.59191,-2.02294 0.90595,-2.12039 3.17336,-0.98477 3.48836,1.74711 3.66187,4.24338 0.60186,8.65898 -1.43727,2.07398 -2.61322,4.08736 -2.61322,4.47419 0,2.55022 7.79867,-2.39749 9.03135,-5.72975 1.25125,-3.38245 -0.84976,-7.62036 -5.11178,-10.31086 -3.31673,-2.09376 -3.91957,-3.01015 -3.91957,-5.95824 0,-3.18168 0.33435,-3.57396 3.85386,-4.52166 4.19409,-1.12935 7.1232,-3.80812 9.66504,-8.83896 3.84449,-7.60907 0.27098,-8.83844 -3.82357,-1.31539 -2.61852,4.81106 -5.09391,7.0736 -7.73909,7.0736 -2.89811,0 3.79828,-38.8713 12.4085,-72.02896 l 3.09659,-11.92489 13.73323,-11.30862 c 7.55327,-6.21974 15.913,-13.24054 18.57717,-15.60177 2.66417,-2.36123 5.28334,-4.29315 5.82038,-4.29315 0.53704,0 0.97643,3.071 0.97643,6.82444 v 6.82445 l -4.83462,2.21792 c -11.92631,5.4713 -24.4598,24.24444 -24.4598,36.63681 0,8.06083 3.54124,6.17831 8.65695,-4.60203 3.89438,-8.20662 11.36615,-15.86266 19.16572,-19.63836 4.14724,-2.00765 5.79721,-2.2051 14.9363,-1.78746 8.4566,0.38646 11.28934,0.95254 16.0136,3.20011 9.04266,4.30206 14.96856,12.35042 14.96856,20.32977 0,3.24967 -0.19186,3.50084 -1.95389,2.55783 -2.38796,-1.278 -5.81322,-1.36101 -6.55617,-0.15889 -0.30144,0.48775 1.31025,2.99798 3.58154,5.5783 2.27129,2.58032 4.75597,6.7727 5.5215,9.3164 3.54909,11.79271 2.59744,27.37016 -2.28069,37.33261 -3.44035,7.02611 -11.1572,15.61493 -17.58092,19.56749 -6.91681,4.25595 -5.94974,8.59823 1.49859,6.72882 3.42433,-0.85946 15.06957,-11.99278 18.85554,-18.02667 1.83603,-2.92616 3.42948,-5.45986 3.54101,-5.63045 0.11153,-0.17059 6.59538,0.49457 14.40856,1.47815 7.81317,0.98357 14.53759,1.4565 14.94314,1.05094 1.5603,-1.5603 -1.56343,-2.66954 -13.01932,-4.62316 -12.90792,-2.20125 -13.88782,-2.53697 -13.88782,-4.75816 0,-2.5265 2.52811,-2.68332 15.25255,-0.94615 7.97788,1.08916 12.63563,1.33255 13.27452,0.69366 1.66442,-1.66442 -2.41863,-3.06104 -14.8515,-5.07997 -6.46096,-1.04917 -11.99932,-2.1597 -12.30746,-2.46784 -0.30814,-0.30815 -0.22071,-1.10967 0.19431,-1.78118 0.77742,-1.25789 16.2533,-0.80663 23.54119,0.68643 2.92795,0.59984 3.33717,0.44351 3.02891,-1.15715 -0.40776,-2.11732 -2.75084,-2.81589 -15.067,-4.49208 -9.86219,-1.34221 -11.62294,-2.09982 -10.6674,-4.58992 0.55911,-1.45701 1.47123,-1.64223 5.42107,-1.10085 2.61187,0.358 8.51229,0.94019 13.11205,1.29375 7.2328,0.55596 8.36319,0.42627 8.36319,-0.95951 0,-1.71372 -1.31588,-1.99439 -17.45336,-3.72264 -10.07378,-1.07886 -10.83091,-1.37408 -10.83091,-4.22322 0,-1.92864 0.40225,-2.01491 6.31345,-1.35404 3.4724,0.38821 9.72272,1.29165 13.8896,2.00764 4.16688,0.716 7.96567,0.93989 8.44174,0.49755 1.93433,-1.79727 -4.68158,-4.15806 -15.6383,-5.58031 -14.06406,-1.82559 -14.01665,-1.80853 -14.01665,-5.04486 0,-2.03448 0.39776,-2.50244 1.76777,-2.07978 1.8719,0.57751 17.7545,3.05992 25.66224,4.01095 3.32719,0.40014 5.03896,0.15889 5.85577,-0.82531 1.4056,-1.69364 -2.56644,-2.69724 -20.91141,-5.28361 -11.94088,-1.68349 -13.33234,-2.30836 -11.51588,-5.17153 0.65229,-1.02814 1.87735,-1.06916 5.78407,-0.19364 8.4935,1.90343 25.49155,4.03325 27.1402,3.4006 1.75399,-0.67307 2.05382,-1.99095 0.6503,-2.85838 -0.97741,-0.60407 -17.86375,-3.13923 -27.61453,-4.14578 -4.85536,-0.50121 -5.80837,-0.91914 -5.80837,-2.5472 0,-2.44578 -0.0393,-2.44722 15.15228,0.55801 14.73342,2.9146 20.20305,3.21186 20.20305,1.09797 0,-1.84789 -0.39031,-1.95062 -19.85705,-5.22605 l -16.32151,-2.74622 -0.59854,-2.9927 c -1.01053,-5.05265 -0.68425,-7.06439 1.5276,-9.4188 2.89407,-3.0806 1.59805,-4.80218 -3.05498,-4.05813 -3.26727,0.52246 -4.29517,0.10531 -8.69056,-3.52682 -2.74175,-2.26565 -7.15383,-5.2184 -9.80463,-6.56166 -2.6508,-1.34326 -4.81963,-2.61872 -4.81963,-2.83436 0,-0.69024 8.90027,-5.63481 10.14272,-5.63481 0.65816,0 4.16259,3.20348 7.78762,7.11885 7.3751,7.96579 15.73109,14.72132 23.1046,18.67928 7.50226,4.02707 10.19417,3.2516 26.11074,-7.5218 7.46341,-5.05173 14.38707,-9.1849 15.38594,-9.18482 0.99886,7e-5 5.45267,2.35548 9.89734,5.23425 l 8.08122,5.23411 -4.32091,0.77873 c -15.2557,2.74944 -31.68278,20.85787 -31.94354,35.21305 -0.0953,5.243 0.0471,5.57983 2.47732,5.86296 2.31065,0.26919 2.75588,-0.26278 4.28811,-5.12356 0.94036,-2.98317 3.41819,-7.86936 5.50629,-10.85821 7.78255,-11.13972 17.72098,-15.81221 31.60817,-14.86036 16.3029,1.11743 26.31217,9.73179 28.73837,24.73337 0.66343,4.10204 0.58062,4.29315 -1.86022,4.29315 -3.89921,0 -4.02754,1.44207 -0.65942,7.41006 5.9651,10.56959 7.8925,29.98067 4.16583,41.95453 -2.42105,7.77882 -9.73592,18.05625 -16.25998,22.84536 -5.15777,3.78615 -6.55191,7.0878 -3.48913,8.2631 2.22072,0.85218 5.5774,-1.17044 11.39255,-6.86472 13.88586,-13.59724 19.06331,-29.99601 15.94584,-50.50589 -0.92082,-6.0581 -1.50789,-15.58719 -1.39218,-22.59737 0.17646,-10.69077 -0.0692,-12.71223 -2.0809,-17.12285 l -2.28099,-5.00102 3.5269,-3.52689 c 3.47187,-3.47188 3.55939,-3.49749 5.60998,-1.64173 4.98157,4.50826 7.92433,10.67965 9.78389,20.51822 1.51484,8.01471 1.85317,14.87631 1.85317,37.58393 0,15.27855 -0.33448,28.96907 -0.74329,30.42336 l -0.74329,2.64416 -4.51192,-1.48539 c -2.48155,-0.81695 -5.22589,-2.57504 -6.09852,-3.90684 -2.12304,-3.24016 -3.56034,-3.05752 -3.56034,0.45242 0,3.57955 2.59305,5.99733 8.25177,7.69402 4.16002,1.24733 4.36931,1.49328 4.25689,5.00246 -0.14864,4.63946 -0.52285,4.98764 -3.77026,3.50803 -4.07293,-1.85576 -8.64238,-0.0337 -12.45644,4.9668 -6.10413,8.00305 -5.29932,15.11594 2.37245,20.96749 2.82215,2.15256 3.48293,2.32472 3.97734,1.03631 0.34662,-0.90328 -0.70628,-3.12127 -2.53465,-5.33941 -4.42301,-5.36587 -4.29997,-10.02822 0.39604,-15.00744 3.06644,-3.25137 3.94156,-3.65252 6.74488,-3.09185 1.7717,0.35433 3.39022,0.81321 3.59674,1.01972 0.20652,0.20652 -0.48009,4.86111 -1.52579,10.34354 -1.0457,5.48243 -1.70771,10.72154 -1.47112,11.64245 0.45134,1.75684 3.15732,2.83429 7.17659,2.85751 2.27202,0.0131 2.35301,0.24412 1.67367,4.77421 -4.26673,28.45264 -33.17237,42.38128 -91.4394,44.06151 -8.61155,0.24832 -23.15775,0.0999 -32.32488,-0.32981 z m 95.323,-50.01611 c 1.75346,-4.56947 -6.44089,-12.61814 -12.84654,-12.61814 -3.02312,0 -5.70487,0.93982 -5.70487,1.99927 0,0.42513 1.83812,1.0669 4.08472,1.42614 5.54763,0.88711 7.85302,2.45898 10.16196,6.92865 2.09082,4.04748 3.36351,4.71685 4.30473,2.26408 z m -82.59616,-4.44139 c 4.72889,-2.14762 8.51914,-6.86123 8.79973,-10.94351 0.1571,-2.2855 -0.26426,-2.84238 -2.33368,-3.08429 -2.00601,-0.23449 -2.9303,0.45675 -4.49425,3.36105 -3.17082,5.88833 -9.04647,8.05207 -13.46372,4.9581 -1.80515,-1.26437 -2.24508,-2.551 -2.24508,-6.56599 0,-4.3136 -0.27401,-4.99349 -2.01251,-4.99349 -1.10688,0 -3.26608,1.41047 -4.79823,3.13438 -5.23933,5.89508 -14.33513,8.69612 -19.41338,5.97832 -2.43384,-1.30255 -4.08045,-6.23954 -4.08045,-12.23428 0,-2.66222 -0.49819,-5.1483 -1.10709,-5.52462 -4.22559,-2.61155 -6.20866,12.16649 -2.33557,17.40486 5.50927,7.45131 13.54871,9.33841 22.09494,5.18633 l 4.56419,-2.21746 2.78644,2.58733 c 5.80945,5.39433 10.84741,6.21913 18.03866,2.95327 z m -125.7217,-12.19518 c 5.34137,-2.42371 8.77203,-2.55922 11.7625,-0.46461 2.04747,1.4341 2.30922,1.43067 2.87266,-0.0377 1.06765,-2.78225 -2.50839,-5.58271 -7.10527,-5.56424 -4.74449,0.0191 -12.02935,3.69418 -12.53584,6.32417 -0.41863,2.17379 -0.34407,2.16995 5.00595,-0.25769 z m 25.94837,-1.76608 c -4.47402,-5.20559 -1.82684,-9.35807 5.98174,-9.38325 2.63903,-0.008 5.48008,-0.46307 6.31346,-1.01015 4.33365,-2.84486 -8.85834,-4.23212 -14.16236,-1.48931 -5.80286,3.00078 -6.58584,8.18611 -1.93792,12.83402 2.27412,2.27413 3.39067,2.79458 4.21877,1.96648 0.8281,-0.82811 0.71861,-1.60034 -0.41369,-2.91779 z m 179.57323,-0.78538 c 4.19858,-2.46054 8.48851,-7.25961 8.48851,-9.49595 0,-2.02148 -2.77353,-1.14427 -4.44429,1.40564 -1.97909,3.02048 -8.60465,6.57898 -12.24939,6.57898 -3.283,0 -6.794,1.80196 -6.00343,3.08113 1.21763,1.97018 9.78284,1.02386 14.2086,-1.5698 z m -43.73825,-9.22029 c 0.81237,-0.81237 -0.64262,-3.51934 -4.86455,-9.05037 -3.63335,-4.75995 -6.91331,-12.6328 -8.01028,-19.22704 -1.85931,-11.1768 5.85417,-32.99673 15.20599,-43.01479 4.831,-5.17516 5.15695,-6.01837 3.014,-7.79686 -2.03527,-1.68912 -7.39609,3.27937 -13.68746,12.68574 -14.69924,21.97719 -13.99729,53.24464 1.43136,63.75821 4.98785,3.39888 5.8335,3.72255 6.91094,2.64511 z m -35.41944,-7.84709 c 1.28485,-1.92426 0.84933,-2.6267 -1.62862,-2.6267 -2.88012,0 -5.12852,2.3972 -4.29229,4.57639 0.49803,1.29784 1.00167,1.36173 2.89093,0.36671 1.25831,-0.66272 2.6218,-1.7051 3.02998,-2.3164 z M 278.0614,354.5642 c 3.85795,-2.70222 2.59792,-3.5596 -4.7899,-3.25922 -5.60653,0.22796 -7.39267,-0.0716 -8.79663,-1.4756 -1.55925,-1.55923 -1.61455,-2.25559 -0.48131,-6.06092 2.41738,-8.11734 2.54865,-9.13928 1.11251,-8.66057 -2.27907,0.7597 -5.02459,5.22899 -5.67523,9.23844 -0.73539,4.53165 0.97241,8.30038 4.67387,10.31415 3.47947,1.89302 11.19254,1.83981 13.95669,-0.0963 z m 102.25017,-7.54387 c 0,-1.77719 -4.37342,-2.82409 -19.16838,-4.58843 -10.49913,-1.25205 -14.61065,-1.40756 -15.43443,-0.58377 -0.6176,0.6176 -0.78918,1.45665 -0.38127,1.86456 0.66874,0.66875 25.39362,3.90549 32.20616,4.21613 1.52786,0.0697 2.77792,-0.33916 2.77792,-0.90849 z m -91.49102,-0.8683 c 0.30364,-0.49131 -1.75819,-3.88592 -4.58186,-7.54358 -14.00781,-18.14506 -11.31833,-38.47482 7.84276,-59.28347 4.07985,-4.43066 7.41792,-8.73431 7.41792,-9.56365 0,-4.93074 -10.78156,2.38992 -17.51503,11.89266 -9.17804,12.9527 -11.75435,20.6409 -11.75754,35.08676 -0.002,7.94291 0.40431,10.46674 2.35665,14.64721 2.83185,6.06377 7.03478,11.22605 11.2155,13.77554 3.46511,2.11308 4.23314,2.26427 5.0216,0.98853 z m 89.89317,-4.77062 c 5.10859,-1.96034 -2.61867,-3.96326 -19.36281,-5.01887 -7.8752,-0.49648 -11.36422,-0.38306 -11.36422,0.36942 0,1.36285 1.65943,1.8369 11.11168,3.17421 4.16688,0.58953 8.71256,1.23869 10.10152,1.44258 4.43728,0.65133 7.87089,0.66312 9.51383,0.0326 z m 57.96493,-16.64591 c 0.17252,-1.48418 -0.39643,-3.19281 -1.31778,-3.95746 -1.3768,-1.14266 -1.93375,-1.03325 -3.69236,0.72535 -2.91692,2.91693 -1.71538,6.58673 2.01532,6.15523 2.04161,-0.23613 2.76449,-0.9417 2.99482,-2.92312 z M 320.13534,310.10261 c 3.05108,-3.05108 1.29561,-7.50399 -2.9583,-7.50399 -1.16673,0 -2.66681,0.54548 -3.33351,1.21218 -1.29642,1.29643 -1.6548,6.0897 -0.53874,7.20575 1.2302,1.23021 5.22028,0.69633 6.83055,-0.91394 z"
       id="path4957"
       inkscape:connector-curvature="0"
       transform="scale(0.26458333)" />
    <path
       style="opacity:1;vector-effect:none;fill:#ffffff;fill-opacity:1;stroke:#000000;stroke-width:1;stroke-linecap:butt;stroke-linejoin:miter;stroke-miterlimit:4;stroke-dasharray:none;stroke-dashoffset:0;stroke-opacity:1"
       d="m 463.66194,258.90663 c -1.07545,-0.60185 -3.79547,-2.49522 -6.04449,-4.20749 -2.24902,-1.71228 -6.13035,-3.99805 -8.62516,-5.0795 -2.49482,-1.08145 -4.66549,-2.04428 -4.82371,-2.13962 -0.58717,-0.35383 3.34611,-11.52419 4.06258,-11.53757 0.40945,-0.008 5.75775,4.6142 11.8851,10.27078 7.92297,7.31422 10.77139,10.5333 9.86216,11.1455 -3.48523,2.34665 -4.46164,2.58592 -6.31648,1.5479 z"
       id="path4959"
       inkscape:connector-curvature="0"
       transform="scale(0.26458333)" />
    <path
       style="opacity:1;vector-effect:none;fill:#ffffff;fill-opacity:1;stroke:#000000;stroke-width:1;stroke-linecap:butt;stroke-linejoin:miter;stroke-miterlimit:4;stroke-dasharray:none;stroke-dashoffset:0;stroke-opacity:1"
       d="m 514.84957,276.48565 c -0.73013,-0.47049 -3.08391,-6.09679 -5.23061,-12.5029 -4.92965,-14.71088 -11.7014,-28.26061 -21.92901,-43.87825 -1.38862,-2.12042 -1.25642,-2.22633 4.34305,-3.47943 3.17639,-0.71085 9.15785,-3.02233 13.29213,-5.13662 4.13429,-2.1143 8.5356,-3.84417 9.78069,-3.84417 1.2451,0 5.02298,1.37877 8.3953,3.06394 12.0024,5.99767 24.39212,22.45502 26.3821,35.04353 0.92971,5.88137 1.53396,5.41916 -8.95739,6.85186 -6.01712,0.82169 -10.10153,2.46155 -10.10153,4.05567 0,0.711 2.72741,3.65552 6.06092,6.54339 3.3335,2.88786 6.06091,5.83818 6.06091,6.55626 0,3.12392 -24.56191,9.0044 -28.09656,6.72672 z"
       id="path4961"
       inkscape:connector-curvature="0"
       transform="scale(0.26458333)" />
    <path
       style="opacity:1;vector-effect:none;fill:#ffffff;fill-opacity:1;stroke:#000000;stroke-width:1;stroke-linecap:butt;stroke-linejoin:miter;stroke-miterlimit:4;stroke-dasharray:none;stroke-dashoffset:0;stroke-opacity:1"
       d="m 178.6868,250.8283 c 6.32027,-7.728 8.68564,-11.27675 8.68564,-13.03101 0,-2.50523 -2.07022,-2.40343 -14.33188,0.70474 -5.58377,1.41541 -10.39179,2.334 -10.68448,2.0413 -0.2927,-0.2927 0.66959,-5.34951 2.13843,-11.23736 4.95193,-19.84995 13.42656,-32.76413 28.81663,-43.91264 3.76086,-2.72436 9.60052,-6.03332 10.64761,-6.03332 0.28831,0 2.0666,2.41115 3.95175,5.35812 6.062,9.47644 17.99595,17.87538 25.39889,17.87538 h 3.57771 l -6.38147,6.31346 c -6.87142,6.79817 -16.28381,18.79239 -22.3941,28.53681 -10.00248,15.95152 -11.02484,16.66751 -23.79914,16.66751 h -8.31055 z"
       id="path4963"
       inkscape:connector-curvature="0"
       transform="scale(0.26458333)" />
    <path
       style="opacity:1;vector-effect:none;fill:#ffffff;fill-opacity:1;stroke:#000000;stroke-width:1;stroke-linecap:butt;stroke-linejoin:miter;stroke-miterlimit:4;stroke-dasharray:none;stroke-dashoffset:0;stroke-opacity:1"
       d="m 188.01664,361.96724 c -2.614,-5.25195 -2.89328,-6.83755 -3.02475,-17.17259 -0.14479,-11.38277 -0.14352,-11.38914 4.01674,-20.08429 4.13523,-8.64283 7.45657,-12.91796 6.1181,-7.87503 -0.73421,2.76623 -2.46449,22.09287 -3.5186,39.30137 l -0.71158,11.61676 z"
       id="path4965"
       inkscape:connector-curvature="0"
       transform="scale(0.26458333)" />
    <path
       style="opacity:1;vector-effect:none;fill:#ffffff;fill-opacity:1;stroke:#000000;stroke-width:1;stroke-linecap:butt;stroke-linejoin:miter;stroke-miterlimit:4;stroke-dasharray:none;stroke-dashoffset:0;stroke-opacity:1"
       d="m 354.84276,472.83064 c -4.9397,-1.72501 -7.84308,-2.04594 -16.47613,-1.8212 l -7.89512,0.20554 -1.53723,-5.96288 c -0.84547,-3.27959 -1.60474,-6.22201 -1.68725,-6.53872 -0.13554,-0.52026 1.25763,-0.596 14.43235,-0.78466 15.30583,-0.21917 20.83754,-0.65885 24.94634,-1.98282 2.03796,-0.65669 3.45536,-0.88681 4.93782,-0.80167 0.60083,0.0345 0.57352,0.18745 -0.30963,1.73427 -2.15888,3.78123 -8.45001,12.95998 -10.18073,14.85366 -2.1417,2.34336 -2.48986,2.40475 -6.23042,1.09848 z"
       id="path4973"
       inkscape:connector-curvature="0"
       transform="scale(0.26458333)" />
    <path
       style="opacity:1;vector-effect:none;fill:#ffffff;fill-opacity:1;stroke:#000000;stroke-width:1;stroke-linecap:butt;stroke-linejoin:miter;stroke-miterlimit:4;stroke-dasharray:none;stroke-dashoffset:0;stroke-opacity:1"
       d="m 334.33513,496.89953 c -0.65019,-5.34665 -1.26879,-11.9093 -1.37466,-14.58366 l -0.19249,-4.86248 1.21117,-0.51066 c 0.88505,-0.37316 2.65363,-0.50037 6.56831,-0.47245 5.93135,0.0423 8.6765,0.58586 13.14528,2.60287 l 2.43098,1.09724 -5.90855,7.7737 c -8.68953,11.43256 -14.16559,18.4754 -14.44838,18.5823 -0.13722,0.0519 -0.78147,-4.28022 -1.43166,-9.62686 z"
       id="path4975"
       inkscape:connector-curvature="0"
       transform="scale(0.26458333)" />
    <path
       style="opacity:1;vector-effect:none;fill:#ffffff;fill-opacity:1;stroke:#000000;stroke-width:1;stroke-linecap:butt;stroke-linejoin:miter;stroke-miterlimit:4;stroke-dasharray:none;stroke-dashoffset:0;stroke-opacity:1"
       d="m 327.6902,506.2533 c -0.13429,-0.21728 -0.13335,-1.34979 0.002,-2.5167 0.31455,-2.7102 -0.34302,-3.15804 -2.11509,-1.44048 l -1.17318,1.13709 -1.57113,-0.60552 c -2.62685,-1.01239 -8.24175,-4.93794 -11.72793,-8.19936 -3.24681,-3.03749 -5.86895,-4.64694 -6.91614,-4.2451 -0.86273,0.33107 -1.05295,-0.464 -0.56579,-2.36483 0.39924,-1.55772 0.38433,-1.85093 -0.11976,-2.35502 -0.52961,-0.5296 -0.67925,-0.51183 -1.86611,0.2217 -0.85013,0.5254 -1.58374,0.72382 -2.15039,0.5816 -3.14284,-0.78879 -24.17883,-20.53932 -27.7329,-26.03815 -1.55675,-2.40859 -1.71132,-3.41189 -0.67074,-4.3536 0.39285,-0.35553 0.71428,-0.85693 0.71428,-1.11421 0,-1.05528 -2.55615,-1.58457 -3.97789,-0.82368 -0.68314,0.36561 -0.7051,0.30651 -0.46958,-1.26403 0.19726,-1.31543 0.11931,-1.78873 -0.38665,-2.34782 -0.34855,-0.38514 -0.78542,-0.70026 -0.97083,-0.70026 -1.21326,0 -2.82899,-1.28831 -3.49009,-2.78285 -0.3962,-0.89566 -1.60177,-3.02537 -2.67904,-4.73267 -1.07727,-1.70731 -2.13975,-3.6236 -2.36105,-4.25843 -0.36544,-1.04832 -0.31609,-1.23425 0.53781,-2.02603 1.63122,-1.51255 1.11164,-2.43167 -1.38125,-2.44333 -1.2586,-0.006 -1.43973,-0.11292 -1.52238,-0.89954 -0.22063,-2.09993 -0.8639,-3.56897 -1.87944,-4.2921 -1.31497,-0.93634 -1.38989,-1.77933 -0.15814,-1.77933 1.97441,0 6.2179,2.52101 7.0253,4.17365 0.44824,0.91751 0.56724,0.94923 3.67752,0.9805 2.75055,0.0276 3.53934,0.18183 5.46733,1.06866 1.47323,0.67765 2.42707,1.37288 2.75585,2.00867 0.48867,0.94499 0.60608,0.97669 4.17553,1.12737 3.96766,0.16749 4.9257,0.48424 7.90951,2.61511 l 1.73679,1.24032 h 4.25682 c 2.87407,0 4.65203,0.16513 5.47348,0.50835 1.08505,0.45336 1.22869,0.67551 1.32782,2.05358 0.10361,1.44031 0.18671,1.55257 1.22408,1.65357 0.87593,0.0853 1.30832,-0.12387 2.03051,-0.98215 1.12133,-1.33262 1.73088,-1.35377 4.35764,-0.1512 1.92994,0.88356 2.16254,0.91269 3.92024,0.49102 2.51553,-0.60347 4.09123,-0.0589 6.34181,2.19166 3.00141,3.00141 3.90197,6.29422 2.39034,8.74008 -0.87945,1.42299 -0.67234,1.92366 0.79575,1.92366 1.39421,0 2.89302,1.56246 3.66105,3.81651 0.71106,2.08683 0.72088,3.69842 0.0326,5.34572 -0.71409,1.70906 -0.68846,1.91164 0.39964,3.1592 2.46251,2.82339 4.37678,11.48691 3.87339,17.53006 l -0.24401,2.92924 1.0212,0.48945 c 0.869,0.4165 1.02121,0.70008 1.02121,1.90266 0,1.13247 -0.16922,1.49758 -0.85182,1.83789 -1.87468,0.93463 -1.95251,2.52745 -0.21112,4.32051 1.51373,1.55864 2.39663,4.28395 2.24303,6.92374 -0.10355,1.77952 -0.65495,2.59472 -1.18022,1.74482 z m -4.08354,-5.01236 c 0.95387,-0.5105 0.86412,-1.6323 -0.21708,-2.7135 -0.73465,-0.73465 -1.00723,-0.82543 -1.42857,-0.47575 -0.69696,0.57843 -0.66014,2.09862 0.0704,2.90584 0.69187,0.7645 0.68024,0.76241 1.57527,0.28341 z m -3.40075,-5.10097 c 0.47278,-1.8837 -1.09497,-3.48566 -2.26559,-2.31504 -0.61508,0.61509 -0.5281,2.44093 0.1521,3.19253 0.71642,0.79164 1.80835,0.33828 2.11349,-0.87749 z m 3.73414,-3.279 c 0.91431,-1.10168 -0.95054,-3.59419 -2.13939,-2.85944 -0.46795,0.28921 -0.46263,1.82208 0.009,2.70402 0.44071,0.82348 1.51079,0.90155 2.13002,0.15542 z m -8.77524,-0.38298 c 0.6791,-0.67909 0.70234,-1.54438 0.0641,-2.3852 -0.73659,-0.97034 -1.52982,-0.75795 -1.77654,0.47566 -0.22132,1.10662 0.23814,2.47077 0.83219,2.47077 0.17549,0 0.57162,-0.25255 0.88029,-0.56123 z m -3.90175,-4.08308 c 1.31521,-1.45328 -0.86417,-3.45712 -2.25131,-2.06998 -0.59394,0.59394 -0.53546,1.36136 0.1625,2.1326 0.76069,0.84056 1.28569,0.82482 2.08881,-0.0626 z m 8.76579,-0.93637 c 0.18702,-0.49192 0.34004,-0.95281 0.34004,-1.0242 0,-0.26071 -1.13116,-1.25226 -1.42857,-1.25226 -1.15562,0 -2.03664,3.29387 -0.98214,3.67197 0.70388,0.25239 1.69916,-0.41837 2.07067,-1.39551 z m -20.09265,-3.7875 c 0.34391,-0.72115 0.36455,-1.16324 0.0792,-1.69643 -0.5133,-0.9591 -1.52879,-0.91098 -2.73875,0.12979 -0.89703,0.77159 -0.94858,0.9401 -0.55307,1.80815 0.608,1.33442 2.52996,1.18994 3.21262,-0.24151 z m 7.57555,0.43961 c 0.2716,-0.5075 0.2716,-0.92108 0,-1.42857 -0.67465,-1.26059 -2.85714,-0.71497 -2.85714,0.71428 0,1.42925 2.18249,1.97488 2.85714,0.71429 z m 7.78571,0.28571 c 0.60481,-0.60481 0.53186,-1.72248 -0.16249,-2.48973 -0.79815,-0.88194 -1.14786,-0.82269 -1.56122,0.26452 -0.71305,1.87547 0.50326,3.44566 1.72371,2.22521 z m 8.63092,-0.72906 c 0.91876,-1.6425 -0.62468,-3.15473 -1.909,-1.87041 -0.5865,0.58651 -0.79031,2.34061 -0.3259,2.80501 0.51354,0.51354 1.70314,0.0161 2.2349,-0.9346 z m -28.63092,-3.19951 c 0.63186,-0.63185 0.52246,-1.51862 -0.27656,-2.24172 -0.66031,-0.59757 -0.76248,-0.60056 -1.60714,-0.0471 -0.99307,0.65068 -1.0838,0.99613 -0.5323,2.0266 0.41326,0.77219 1.75989,0.91835 2.416,0.26224 z m 8.44404,-0.36518 c 0.70728,-1.00978 0.7069,-1.85066 -10e-4,-2.43825 -0.70491,-0.58501 -2.19837,-0.10414 -2.87942,0.92714 -1.12519,1.70381 1.70544,3.18875 2.88051,1.51111 z m 7.84881,0.11105 c 0.88941,-0.98279 0.62677,-2.67599 -0.4385,-2.82699 -1.14886,-0.16285 -2.56863,0.85382 -2.56863,1.83935 0,1.65626 1.85167,2.26441 3.00713,0.98764 z m 7.83682,0.14487 c 1.24219,-1.24219 0.97107,-3.0336 -0.45911,-3.0336 -0.91314,0 -1.45627,0.73705 -1.45627,1.97619 0,1.67295 0.8375,2.1353 1.91538,1.05741 z m -28.19089,-3.95197 c 0.74407,-0.74407 0.70791,-1.33817 -0.12747,-2.09418 -0.8898,-0.80526 -2.09455,-0.44195 -2.38607,0.71957 -0.41046,1.63539 1.31121,2.57695 2.51354,1.37461 z m 7.98979,0.13266 c 0.65612,-0.65612 0.50995,-2.00275 -0.26223,-2.41601 -1.03048,-0.5515 -1.37592,-0.46076 -2.0266,0.5323 -0.55345,0.84467 -0.55045,0.94684 0.0471,1.60714 0.7231,0.79902 1.60986,0.90842 2.24171,0.27657 z m 7.98974,-0.1625 c 0.84056,-0.76069 0.82483,-1.28569 -0.0626,-2.08882 -1.45329,-1.3152 -3.45713,0.86418 -2.06998,2.25132 0.59393,0.59393 1.36136,0.53546 2.13259,-0.1625 z m 8.30311,-0.0916 c 0.88941,-0.98279 0.62678,-2.67599 -0.4385,-2.82699 -1.07481,-0.15235 -2.56863,0.8402 -2.56863,1.7067 0,0.85521 0.92301,1.80299 1.75587,1.80299 0.34838,0 0.91145,-0.30721 1.25126,-0.6827 z m 8.05038,-0.0989 c 0.82324,-0.88364 0.93066,-1.7302 0.29963,-2.36123 -1.06714,-1.06714 -2.42857,-0.0526 -2.42857,1.80986 0,1.54794 0.96714,1.79842 2.12894,0.55137 z m -36.19724,-4.04895 c 0.55344,-0.84466 0.55045,-0.94683 -0.0471,-1.60714 -1.11954,-1.23707 -2.67029,-0.68206 -2.67029,0.95569 0,0.78349 0.80684,1.52075 1.68819,1.5426 0.24101,0.006 0.70415,-0.39505 1.02922,-0.89115 z m 7.79279,0.34078 c 1.20233,-1.20233 0.26078,-2.924 -1.37462,-2.51354 -1.16151,0.29152 -1.52483,1.49627 -0.71957,2.38608 0.75601,0.83538 1.35011,0.87154 2.09419,0.12746 z m 7.91847,0.2879 c 0.69934,-0.46696 1.25963,-1.87799 1.03133,-2.5973 -0.26151,-0.82396 -1.79733,-0.93713 -2.76358,-0.20364 -1.56335,1.18676 0.10636,3.88658 1.73225,2.80094 z m 8.55492,-0.59888 c 0.85954,-1.31182 0.55607,-2.49566 -0.67589,-2.63671 -1.8748,-0.21463 -3.05941,1.70619 -1.81791,2.94769 0.81582,0.81583 1.8391,0.68822 2.4938,-0.31098 z m 8.14718,-0.30137 c 0.5754,-0.77141 0.65557,-1.13258 0.35672,-1.60715 -0.92151,-1.46333 -2.63035,-0.71115 -2.63035,1.15779 0,1.95642 1.00181,2.15442 2.27363,0.44936 z m -28.52232,-3.47073 c 1.31521,-1.45328 -0.86417,-3.45712 -2.25131,-2.06998 -0.59394,0.59394 -0.53546,1.36136 0.1625,2.1326 0.76069,0.84056 1.28569,0.82482 2.08881,-0.0626 z m 7.9638,0.0907 c 1.03884,-0.89825 1.28109,-2.04207 0.58081,-2.74235 -0.70028,-0.70028 -1.8441,-0.45803 -2.74235,0.5808 -0.79724,0.92202 -0.78537,1.19761 0.0893,2.07226 0.87465,0.87465 1.15024,0.88653 2.07225,0.0893 z m 8.28489,-0.0893 c 1.344,-1.344 0.57777,-3.55915 -1.05218,-3.04182 -1.69994,0.53954 -2.31616,2.12246 -1.24374,3.19488 0.75241,0.75242 1.43602,0.70684 2.29592,-0.15306 z m -25.05804,-0.31371 c 0.73217,-0.46409 0.34216,-1.93741 -0.6423,-2.42641 -1.63933,-0.8143 -2.14982,0.54017 -0.79717,2.11512 0.60542,0.70491 0.76427,0.73926 1.43947,0.31129 z m 33.4509,-1.25451 c 0,-0.61317 -0.26293,-1.19336 -0.64738,-1.42857 -0.52696,-0.3224 -0.7751,-0.24043 -1.3341,0.44067 -0.92649,1.12887 -0.36803,2.29184 1.02335,2.1311 0.79294,-0.0916 0.95813,-0.28871 0.95813,-1.1432 z m -20.19114,-2.69401 c 1.07138,-2.0019 -0.21015,-3.51888 -1.9884,-2.35372 -1.13582,0.74422 -1.37155,1.36725 -0.87111,2.30233 0.52479,0.98059 2.34471,1.01329 2.85951,0.0514 z m 8.02803,-0.10295 c 0.70728,-1.00978 0.7069,-1.85066 -10e-4,-2.43824 -0.70491,-0.58502 -2.19837,-0.10415 -2.87942,0.92713 -1.12519,1.70381 1.70544,3.18876 2.88051,1.51111 z m -24.86858,-0.8801 c 0.13259,-0.93155 -1.31234,-2.03094 -2.21435,-1.68481 -0.62226,0.23878 -0.50923,1.27919 0.24064,2.21518 0.57049,0.71209 1.84563,0.36943 1.97371,-0.53037 z m 8.62636,0.43888 c 0.34968,-0.42134 0.2589,-0.69392 -0.47575,-1.42857 -1.10125,-1.10125 -2.205,-1.16722 -2.74197,-0.16389 -0.81617,1.52504 2.08292,2.95981 3.21772,1.59246 z m 24.22675,0.0921 c 1.00108,-1.00108 0.0272,-2.68939 -1.30701,-2.26592 -0.9001,0.28568 -1.21741,1.13377 -0.75057,2.00607 0.41556,0.77647 1.41477,0.90266 2.05758,0.25985 z m 8.27187,-0.25985 c 0.46684,-0.8723 0.14953,-1.72039 -0.75057,-2.00607 -1.33424,-0.42347 -2.30808,1.26484 -1.30701,2.26592 0.64281,0.64281 1.64203,0.51662 2.05758,-0.25985 z m -45.05713,-4.02177 c 0.13521,-0.70965 -1.11814,-2.07553 -1.90452,-2.07553 -0.84531,0 -1.02393,0.97966 -0.36263,1.98893 0.67506,1.03026 2.07716,1.08382 2.26715,0.0866 z m 8.80894,0.0806 c 0.34891,-0.38554 0.54142,-0.94325 0.42779,-1.23936 -0.43705,-1.13894 -3.60873,-1.13894 -4.04579,0 -0.30036,0.78273 0.90651,1.94035 2.0229,1.94035 0.52839,0 1.24619,-0.31545 1.5951,-0.70099 z m 7.71409,0.33128 c 0.82333,-0.44064 0.92935,-2.06118 0.15429,-2.35859 -0.94397,-0.36224 -2.332,0.21965 -2.75889,1.15658 -0.33368,0.73234 -0.314,0.97184 0.10143,1.23468 0.68501,0.43341 1.65597,0.42073 2.50317,-0.0327 z m 8.19878,-0.27922 c 0.68232,-0.55251 0.7394,-0.76478 0.38415,-1.42858 -0.55475,-1.03655 -1.64698,-0.98582 -2.76105,0.12825 -0.73465,0.73465 -0.82542,1.00723 -0.47575,1.42857 0.59099,0.71209 1.88682,0.65384 2.85265,-0.12824 z m 7.87265,0.27922 c 0.83268,-0.44564 0.89913,-1.5128 0.13375,-2.148 -1.10697,-0.91871 -3.40992,0.61465 -2.90385,1.93345 0.25412,0.66221 1.7213,0.77585 2.7701,0.21455 z m 8.13012,0.0576 c 0.26981,-0.17105 0.4241,-0.74727 0.35714,-1.33382 -0.0934,-0.81801 -0.31705,-1.05569 -1.07601,-1.14337 -1.34331,-0.15519 -2.0464,1.12285 -1.15785,2.10469 0.67403,0.74479 1.14271,0.83782 1.87672,0.3725 z m -36.57567,-3.83328 c 1.34698,-0.51688 0.0528,-2.64036 -1.60922,-2.64036 -1.38965,0 -1.7984,1.31147 -0.6888,2.20997 0.84513,0.68435 1.37676,0.78391 2.29802,0.43039 z m 8.47179,-0.47513 c 0.68528,-0.56237 0.76944,-0.81311 0.44952,-1.33928 -0.7022,-1.1549 -3.41411,-1.04992 -3.87456,0.14998 -0.159,0.41435 0.0216,0.83664 0.53589,1.25309 1.00407,0.81304 1.84325,0.79452 2.88915,-0.0638 z m 7.8309,0.32221 c 0.82334,-0.44064 0.92935,-2.06118 0.15429,-2.35859 -1.52542,-0.58536 -3.56964,1.11794 -2.65882,2.21541 0.50042,0.60297 1.53489,0.66211 2.50453,0.14318 z m 8.24053,-0.32221 c 0.68528,-0.56237 0.76944,-0.81311 0.44952,-1.33928 -0.53791,-0.88469 -1.84296,-1.01345 -2.67155,-0.26358 -1.80773,1.63597 0.31541,3.1675 2.22203,1.60286 z m 7.6056,0.34361 c 1.06362,-0.40439 1.2933,-2.02937 0.3386,-2.39572 -1.47194,-0.56484 -3.53618,1.1246 -2.66163,2.17837 0.54334,0.65469 1.04845,0.70194 2.32303,0.21735 z m -36.20327,-3.94998 c 0.37994,-0.20334 0.6908,-0.58021 0.6908,-0.8375 0,-0.83111 -1.31593,-1.70913 -2.37913,-1.58741 -1.35996,0.15569 -1.43822,1.66591 -0.12087,2.33238 1.0845,0.54867 0.96804,0.54271 1.8092,0.0925 z m 8.89904,-0.56818 c 0.84438,-0.80361 0.016,-1.72104 -1.66835,-1.84765 -2.26916,-0.17056 -3.08773,1.62137 -1.10137,2.41101 0.94053,0.3739 2.01442,0.15547 2.76972,-0.56336 z m 7.42658,0.38193 c 1.71676,-1.20246 0.57552,-2.52622 -1.93095,-2.23978 -1.37597,0.15725 -1.65975,1.75404 -0.41799,2.35196 1.12843,0.54334 1.43388,0.52875 2.34894,-0.11218 z m 7.95326,0.19882 c 0.17345,0 0.49289,-0.3317 0.70986,-0.73712 0.56625,-1.05806 -0.15259,-1.76288 -1.79794,-1.76288 -1.44881,0 -2.35269,0.72375 -2.01215,1.61117 0.24735,0.64459 1.62725,1.26908 2.30922,1.04507 0.2616,-0.0859 0.61756,-0.15624 0.79101,-0.15624 z m 8.48273,-0.45889 c 0.25502,-0.2043 0.41573,-0.70696 0.35714,-1.117 -0.21597,-1.51161 -3.49937,-0.83545 -3.49937,0.72064 0,1.10734 1.94807,1.35307 3.14223,0.39636 z m 8.38552,-0.34059 c 0.52282,-1.45903 -1.85787,-2.37139 -2.5948,-0.99442 -0.53611,1.00173 0.76476,2.33795 1.75839,1.80618 0.37124,-0.19868 0.74762,-0.56397 0.83641,-0.81176 z m -44.56347,-3.98341 c 0,-1.01573 -1.82812,-2.26346 -2.60215,-1.77603 -1.56258,0.984 -0.66323,2.7255 1.32158,2.55912 0.98031,-0.0822 1.28057,-0.26579 1.28057,-0.78309 z m 7.85912,0.49398 c 0.71787,-1.16155 -1.39566,-2.82731 -2.70096,-2.12874 -0.78124,0.41811 -0.90973,1.41608 -0.2653,2.06051 0.52031,0.5203 2.65649,0.56944 2.96626,0.0682 z m 8.41573,-0.20531 c 1.10577,-1.33238 -1.44121,-2.84967 -3.03289,-1.80676 -1.06695,0.6991 -1.13391,1.03658 -0.35931,1.81118 0.72595,0.72595 2.78827,0.72326 3.3922,-0.004 z m 7.88197,-0.015 c 1.32039,-1.19493 -0.74948,-2.67166 -2.70346,-1.92875 -0.97671,0.37134 -1.20924,1.36068 -0.48907,2.08085 0.61508,0.61508 2.44092,0.52809 3.19253,-0.1521 z m 8.16084,0.0495 c 1.01838,-1.22708 -1.03656,-2.78025 -2.68482,-2.02925 -1.94656,0.88691 -1.35643,2.56042 0.90288,2.56042 0.75129,0 1.53498,-0.23361 1.78194,-0.53117 z m 8.14683,-0.57083 c 0.12947,-1.11382 -0.70028,-1.89847 -1.67908,-1.58781 -1.67692,0.53223 -1.10978,2.82295 0.64831,2.61858 0.69241,-0.0805 0.95028,-0.33836 1.03077,-1.03077 z m -44.5841,-3.34726 c 0.34968,-0.42134 0.2589,-0.69392 -0.47575,-1.42857 -1.10125,-1.10125 -2.205,-1.16722 -2.74197,-0.16389 -0.81617,1.52504 2.08292,2.95981 3.21772,1.59246 z m 8.05016,0.16035 c 0.73475,-1.18885 -1.75776,-3.05371 -2.85944,-2.1394 -0.72189,0.59912 -0.6766,1.66772 0.0896,2.11399 0.81069,0.47218 2.48422,0.48754 2.76983,0.0254 z m 8.1868,-0.20089 c 0.30867,-0.30867 0.56122,-0.69898 0.56122,-0.86734 0,-0.62584 -1.15246,-1.42858 -2.05096,-1.42858 -0.88886,0 -2.23475,0.87834 -2.23475,1.45842 0,0.62315 1.18819,1.39873 2.14286,1.39873 0.56122,0 1.27296,-0.25255 1.58163,-0.56123 z m 7.98979,0.13266 c 1.24716,-1.24716 -0.47873,-2.87538 -2.3502,-2.21722 -1.07808,0.37914 -1.43032,1.34173 -0.77841,2.12723 0.52046,0.62712 2.53358,0.68502 3.12861,0.09 z m -29.07401,-4.30358 c 0.83077,-1.32527 -1.27383,-2.73399 -2.2776,-1.52451 -0.36508,0.4399 -0.37706,0.76243 -0.0546,1.47019 0.47525,1.04306 1.69457,1.07146 2.33218,0.0543 z m 8.79699,0.25739 c 0.37625,-0.45335 0.30981,-0.69891 -0.39093,-1.44481 -1.10151,-1.17251 -2.59913,-1.07258 -2.77668,0.18527 -0.21677,1.53574 2.15552,2.47904 3.16761,1.25954 z m 8.02702,-0.51155 c 0,-1.15445 -1.65631,-2.16799 -2.5862,-1.58256 -1.56966,0.98822 -0.52036,2.76622 1.51478,2.56674 0.87187,-0.0855 1.07142,-0.26876 1.07142,-0.98418 z m -13.05202,-3.38689 c 0.73832,-0.88963 0.31563,-2.14857 -0.76324,-2.27321 -1.34332,-0.15519 -2.0464,1.12285 -1.15785,2.10469 0.73923,0.81684 1.33934,0.86948 1.92109,0.16852 z"
       id="path4977"
       inkscape:connector-curvature="0"
       transform="scale(0.26458333)" />
    <path
       style="opacity:1;vector-effect:none;fill:#ffffff;fill-opacity:1;stroke:#000000;stroke-width:1;stroke-linecap:butt;stroke-linejoin:miter;stroke-miterlimit:4;stroke-dasharray:none;stroke-dashoffset:0;stroke-opacity:1"
       d="m 338.58471,513.1285 c 0.004,-0.68055 2.45639,-3.78645 8.28571,-10.49318 6.70073,-7.7093 9.21276,-10.87208 9.21276,-11.59938 0,-0.71444 1.05312,-1.56815 1.93444,-1.56815 0.98968,0 1.86785,-0.91389 2.14487,-2.23214 0.11352,-0.54018 0.29209,-1.39298 0.39682,-1.89511 0.17966,-0.86135 0.28062,-0.89944 1.78572,-0.67373 l 1.59529,0.23923 v -1.4619 c 0,-0.80404 0.26403,-2.12178 0.58674,-2.9283 l 0.58674,-1.46641 0.8747,0.94332 c 1.07483,1.15917 2.02023,1.05353 2.17027,-0.24249 0.14972,-1.29329 -0.50746,-2.42533 -1.40796,-2.42533 -0.69416,0 -0.67031,-0.11627 0.42121,-2.05357 3.10561,-5.51205 6.67891,-10.15315 8.47247,-11.00424 1.18966,-0.56454 1.20719,-0.60624 1.09174,-2.59725 l -0.11734,-2.02351 1.07143,0.0268 c 0.58929,0.0147 1.67411,0.15316 2.41071,0.30761 1.6061,0.33676 1.70518,-0.0233 0.42503,-1.5447 -1.46504,-1.7411 -1.69214,-3.08889 -0.84375,-5.00751 0.77787,-1.75916 2.33311,-3.60361 3.03856,-3.60361 0.23795,0 1.3492,0.48215 2.46945,1.07143 2.56052,1.34691 3.40615,1.3575 4.14872,0.0519 0.36819,-0.64735 0.98123,-1.09578 1.69252,-1.23803 1.47115,-0.29423 2.08271,-0.0221 2.35079,1.046 0.45967,1.83148 3.35491,1.80396 4.19502,-0.0399 0.7429,-1.63051 3.25194,-1.60568 3.877,0.0383 0.69517,1.82842 3.66178,1.80868 4.12261,-0.0274 0.57865,-2.30551 5.14905,-1.17401 5.14905,1.27476 0,1.58466 0.57294,1.53167 2.16977,-0.20067 1.87987,-2.03943 4.78002,-3.0224 12.05334,-4.08537 7.04346,-1.02937 7.74307,-0.56125 5.0925,3.40749 -2.10635,3.15389 -5.64901,7.20881 -11.61556,13.29517 -5.20241,5.30687 -13.00326,12.36493 -13.31818,12.05002 -0.0847,-0.0847 0.0254,-0.48922 0.24462,-0.8989 0.53548,-1.00055 -0.10069,-2.17345 -1.17885,-2.17345 -0.90015,0 -2.37621,1.19444 -2.37621,1.92285 0,0.60864 1.05896,1.53597 1.96429,1.72014 0.57032,0.11602 0.39438,0.31201 -0.87289,0.97235 -1.25434,0.65361 -1.72141,0.74321 -2.2273,0.42728 -0.35206,-0.21987 -1.04409,-0.39976 -1.53782,-0.39976 -0.74179,0 -0.8973,0.17058 -0.89535,0.98214 0.001,0.54018 0.32166,1.46429 0.71193,2.05357 0.39027,0.58929 0.71064,1.16204 0.71193,1.27279 0.001,0.11075 -0.96233,0.13158 -2.14139,0.0463 -2.70081,-0.19536 -3.28821,0.21997 -3.14168,2.22137 0.10549,1.44089 0.0909,1.46029 -1.14315,1.51806 -0.6875,0.0322 -1.51836,0.0724 -1.84636,0.0893 -0.328,0.0169 -1.453,0.92969 -2.5,2.02837 -1.047,1.09868 -3.03063,2.84682 -4.40807,3.88474 -2.77113,2.08811 -7.73738,5.18908 -8.31038,5.18908 -0.21679,0 -0.29684,-0.54865 -0.19543,-1.33928 0.10995,-0.85714 -0.0165,-1.59099 -0.35127,-2.03845 -0.50496,-0.67496 -0.54913,-0.65641 -1.27587,0.53572 -0.93851,1.53951 -0.9415,1.9266 -0.0215,2.78375 0.72995,0.68004 0.72211,0.68471 -1.40942,0.83888 -2.05306,0.14851 -2.2233,0.23752 -4.03759,2.11093 -3.42838,3.54011 -8.4182,5.78921 -12.47629,5.62354 -1.32967,-0.0543 -2.49915,-0.0171 -2.59886,0.0826 -0.0997,0.0997 -0.38905,0.81068 -0.64299,1.57995 -1.06964,3.2402 -8.39161,5.82403 -8.79014,3.10192 -0.16305,-1.11375 -0.81562,-0.96693 -2.22652,0.50094 -1.53372,1.59565 -3.55481,2.74723 -3.55068,2.0231 z m 9.41759,-4.77127 c 0.74014,-2.1137 -0.77614,-3.96108 -2.00528,-2.44315 -0.71638,0.88469 -0.79919,1.85247 -0.24682,2.88458 0.53073,0.99168 1.84014,0.73503 2.2521,-0.44143 z m 3.72373,-3.24658 c 0.58826,-0.58826 0.53892,-2.5006 -0.0862,-3.34246 -1.16274,-1.56582 -2.95215,1.18001 -1.85761,2.85049 0.6569,1.00256 1.27644,1.15936 1.94383,0.49197 z m 7.85715,0 c 0.57878,-0.57879 0.54258,-2.49327 -0.0628,-3.32118 -0.46604,-0.63734 -0.52128,-0.61415 -1.07143,0.44971 -1.16127,2.24564 -0.33408,4.33978 1.13423,2.87147 z m -3.5,-5.32176 c 0,-0.59529 -0.17192,-1.40358 -0.38205,-1.79621 -0.4983,-0.93107 -1.20642,-0.38329 -1.78987,1.38458 -0.36815,1.11552 -0.34108,1.34061 0.20964,1.74331 0.94952,0.6943 1.96228,0.007 1.96228,-1.33168 z m 7.70251,0.94248 c 0.47971,-0.73213 0.50634,-1.09075 0.15911,-2.14286 -0.50805,-1.53941 -0.88912,-1.58932 -1.60245,-0.20988 -0.91546,1.77029 -0.6699,3.06509 0.60759,3.20382 0.1428,0.0155 0.51888,-0.36748 0.83575,-0.85108 z m -3.77941,-5.11543 c -0.003,-0.7297 -0.16699,-1.56779 -0.3644,-1.86244 -0.30632,-0.4572 -0.46255,-0.41214 -1.06596,0.30743 -0.78713,0.93866 -0.95573,3.11531 -0.2606,3.36455 0.95008,0.34067 1.69653,-0.45813 1.69096,-1.80954 z m 7.91168,0.85108 c 0.42964,-0.94297 0.0203,-2.7499 -0.67544,-2.98183 -0.80192,-0.26731 -1.94026,2.93978 -1.27839,3.60165 0.52524,0.52524 1.58533,0.18894 1.95383,-0.61982 z m -3.9061,-3.9779 c 0.81956,-1.79875 -0.70597,-3.76787 -2.05298,-2.64995 -0.60534,0.50239 -0.67687,1.87978 -0.14885,2.86638 0.52618,0.98319 1.70818,0.867 2.20183,-0.21643 z m 8.08306,-0.47202 c 0.21486,-1.5113 -0.24349,-2.54931 -1.12569,-2.54931 -0.87918,0 -1.67177,0.60366 -1.67177,1.27326 0,0.7492 1.49576,2.33758 2.09397,2.22364 0.32153,-0.0612 0.6381,-0.48765 0.70349,-0.94759 z m 7.70905,0.091 c 1.26829,-0.48669 0.0817,-2.64036 -1.45472,-2.64036 -0.99445,0 -1.11385,0.87509 -0.28154,2.06339 0.58978,0.84202 0.83403,0.92319 1.73626,0.57697 z m -11.94764,-3.33117 c 0.51801,-0.96791 0.46043,-1.91241 -0.16601,-2.72307 -0.5295,-0.68522 -0.54211,-0.68498 -1.08694,0.021 -0.6882,0.89179 -1.01858,2.15254 -0.7485,2.85635 0.29265,0.76264 1.56314,0.66469 2.00145,-0.1543 z m 8.07717,-0.30439 c 0.87727,-1.75963 -0.45299,-3.79461 -1.8248,-2.79151 -1.24296,0.90887 -0.53051,3.9776 0.86123,3.70958 0.30778,-0.0593 0.74138,-0.47241 0.96357,-0.91807 z m 8.51702,0.0768 c 1.10741,-1.1074 0.45199,-2.65306 -1.125,-2.65306 -0.5477,0 -0.97364,0.31727 -1.25501,0.93481 -0.37592,0.82506 -0.32845,1.01375 0.40436,1.60714 1.00951,0.81745 1.25548,0.83129 1.97565,0.11111 z m -12.36714,-5.18363 c 0.12284,-1.46546 -0.58337,-2.29272 -1.66436,-1.94963 -1.00247,0.31818 -1.19924,1.15117 -0.5627,2.3821 0.80893,1.5643 2.08038,1.3174 2.22706,-0.43247 z m 16.64016,0.89422 c 0.45208,-1.17811 0.21821,-1.92111 -0.67528,-2.14536 -1.32957,-0.3337 -1.96508,0.0579 -1.96508,1.21098 0,0.56271 0.10714,1.13026 0.23809,1.26121 0.46821,0.46821 2.18691,0.23438 2.40227,-0.32683 z m -8.35465,-1.04087 c 0,-0.70773 -1.47163,-2.00972 -2.12857,-1.8832 -0.83411,0.16063 -0.83529,1.11414 -0.002,2.17264 0.61568,0.7827 0.87879,0.89008 1.44216,0.58858 0.37882,-0.20283 0.68891,-0.59795 0.68891,-0.87802 z m -4.35016,-2.90922 c 0.6285,-1.12307 -0.24182,-2.98499 -1.39529,-2.98499 -1.316,0 -1.54017,1.64059 -0.40259,2.94643 0.68288,0.7839 1.37249,0.79869 1.79788,0.0386 z m 8.63203,0.0554 c 0.53831,-0.64862 0.21041,-2.17038 -0.52879,-2.45403 -1.31256,-0.50368 -2.6352,1.02297 -1.96736,2.27083 0.45047,0.84171 1.86356,0.94543 2.49615,0.1832 z m 8.20429,-0.15733 c 0.73899,-1.38083 -0.75589,-2.9036 -2.12902,-2.16873 -0.792,0.42387 -0.94973,1.76455 -0.28571,2.42857 0.6553,0.6553 2.00254,0.51032 2.41473,-0.25984 z m -20.77187,-4.38302 c 0.59799,-0.59799 0.54229,-0.86622 -0.35306,-1.70037 -1.61991,-1.50917 -2.97059,-0.16634 -1.48445,1.47582 0.68674,0.75883 1.23609,0.82597 1.83751,0.22455 z m 8.21831,-0.53465 c 0.074,-0.51711 -0.19415,-0.9774 -0.80082,-1.3749 -1.7122,-1.12188 -2.70975,0.18873 -1.25268,1.6458 0.90449,0.90448 1.90427,0.7726 2.0535,-0.2709 z m 7.85098,0.047 c 0.12716,-0.8844 -1.0635,-2.04975 -1.92384,-1.88295 -0.93038,0.18039 -0.96729,0.78039 -0.11468,1.86431 0.86535,1.10011 1.88169,1.10941 2.03852,0.0186 z m 8.06979,0.35463 c 0.41257,-1.07514 -0.7212,-2.29556 -2.13258,-2.29556 -0.67031,0 -0.6446,1.07248 0.0495,2.06339 0.64491,0.92073 1.77074,1.0462 2.08312,0.23217 z m 4.29969,-3.21393 c 1.04786,-1.04785 0.33664,-2.65306 -1.1755,-2.65306 -0.51818,0 -1.47756,1.04351 -1.47756,1.60715 0,0.62532 0.98182,1.60714 1.60714,1.60714 0.26659,0 0.73725,-0.25255 1.04592,-0.56123 z m 7.9898,0.13266 c 0.58743,-0.58743 0.53878,-1.8925 -0.09,-2.41434 -0.69567,-0.57735 -1.61088,-0.35372 -2.2019,0.53804 -0.92358,1.39354 1.1099,3.05828 2.29189,1.8763 z m -32.43005,-0.81964 c 0.64326,-0.77509 -0.43219,-2.32322 -1.6139,-2.32322 -1.04246,0 -1.17798,0.85082 -0.32866,2.06339 0.64673,0.92333 1.31744,1.01304 1.94256,0.25983 z m 8.15368,-0.30032 c 0.24646,-1.27975 -1.97542,-2.70303 -2.61193,-1.67314 -0.24032,0.38885 0.42028,1.82345 1.03105,2.23908 0.62946,0.42834 1.44567,0.13615 1.58088,-0.56594 z m 7.86386,-0.22082 c 0.13424,-0.94706 -0.71914,-1.80208 -1.79861,-1.80208 -0.83511,0 -0.86058,1.31381 -0.043,2.21724 0.79225,0.87543 1.68727,0.67366 1.8416,-0.41516 z m -11.73035,-4.14132 c 0,-0.67306 -1.73953,-1.94178 -2.34422,-1.70974 -0.77167,0.29612 -0.61947,1.11776 0.39496,2.13219 0.73465,0.73465 1.00724,0.82543 1.42857,0.47575 0.28638,-0.23768 0.52069,-0.64186 0.52069,-0.8982 z m 7.78718,-0.10882 c -0.12579,-1.07511 -1.60923,-2.01352 -2.28993,-1.44859 -0.56539,0.46923 -0.2208,1.65677 0.65969,2.27349 0.99165,0.69458 1.76239,0.30459 1.63024,-0.8249 z m 8.8154,0.66973 c 0.30257,-0.48957 -0.40815,-1.70214 -1.26711,-2.16184 -1.51187,-0.80913 -3.05461,0.81287 -1.88531,1.98217 0.59301,0.593 2.81857,0.71985 3.15242,0.17967 z m 8.19334,-0.21147 c 0.70732,-0.70731 0.70508,-1.02961 -0.0121,-1.74681 -0.35684,-0.35684 -0.86258,-0.48962 -1.33928,-0.35162 -1.0273,0.29739 -2.02747,1.49978 -1.78125,2.1414 0.26841,0.69949 2.41971,0.66998 3.13265,-0.043 z m 7.9898,0.13266 c 0.64443,-0.64443 0.51593,-1.6424 -0.26531,-2.06051 -1.30529,-0.69857 -3.41883,0.96719 -2.70095,2.12874 0.30976,0.50121 2.44595,0.45207 2.96626,-0.0682 z m -3.99329,-3.6932 c 0.47616,-0.72672 0.5149,-1.08244 0.19446,-1.78572 -0.5996,-1.31598 -2.44182,-1.00199 -3.27698,0.55853 -1.01358,1.89388 1.88863,3.04928 3.08252,1.22719 z m 7.85327,0.28248 c 0.64237,-0.84621 0.6167,-2.04547 -0.0557,-2.60352 -0.45418,-0.37694 -0.77293,-0.3539 -1.78571,0.12906 -1.29986,0.61986 -1.65985,1.81532 -0.80428,2.67089 0.6306,0.6306 2.10075,0.52145 2.6457,-0.19643 z m -24.71262,-0.67244 c 0.24092,-0.62785 -1.40071,-2.39112 -2.03251,-2.18311 -0.73807,0.243 -0.69816,1.61153 0.0694,2.37906 0.7696,0.7696 1.6254,0.68418 1.96314,-0.19595 z m 8.99668,-0.60454 c 0.44649,-1.40677 -2.06446,-2.26944 -3.22568,-1.10822 -0.76537,0.76538 -0.71097,1.05485 0.35597,1.89411 0.75408,0.59316 1.07043,0.65164 1.77885,0.32886 0.47391,-0.21592 0.9648,-0.71757 1.09086,-1.11475 z m -17.07216,0.40608 c 0.1352,-0.70964 -1.11814,-2.07553 -1.90452,-2.07553 -0.84532,0 -1.02393,0.97966 -0.36263,1.98893 0.67505,1.03026 2.07716,1.08382 2.26715,0.0866 z m 4.64643,-4.10653 c 0.1263,-0.8873 -1.29882,-2.03231 -2.28747,-1.83785 -2.0172,0.39676 -1.00708,2.93032 1.08662,2.72547 0.80723,-0.079 1.11849,-0.30906 1.20085,-0.88762 z m 7.94802,0.58987 c 0.37994,-0.20334 0.69081,-0.67983 0.69081,-1.05887 0,-1.40607 -2.64593,-1.93426 -3.7237,-0.74334 -0.59071,0.65272 -0.58487,0.7205 0.12321,1.42857 0.81427,0.81427 1.8402,0.94601 2.90968,0.37364 z m 8.19879,-0.27922 c 0.68231,-0.55251 0.73939,-0.76478 0.38414,-1.42858 -0.55741,-1.04152 -1.8506,-0.99542 -2.88229,0.10275 -0.68768,0.732 -0.7517,0.97547 -0.37566,1.42857 0.61023,0.73528 1.89564,0.68933 2.87381,-0.10274 z m 8.00222,0.0877 c 0.71191,-0.7119 0.71331,-1.36796 0.004,-1.95648 -1.10697,-0.91871 -3.40992,0.61465 -2.90385,1.93345 0.29008,0.75592 2.152,0.77071 2.89968,0.023 z m 8.04491,0.0452 c 0.23556,-0.28383 0.37577,-0.88651 0.31159,-1.33929 -0.15055,-1.06197 -1.66297,-1.34236 -2.32883,-0.43174 -0.59955,0.81993 -0.58726,1.04382 0.0948,1.72586 0.69954,0.69954 1.36638,0.71521 1.92246,0.0452 z m -36.62004,-3.6293 c 1.49286,-0.57286 -0.25799,-2.82607 -2.00371,-2.57862 -1.14577,0.16241 -1.28237,1.48765 -0.22936,2.22521 0.87936,0.61592 1.35346,0.69095 2.23307,0.35341 z m 8.47179,-0.47513 c 0.68528,-0.56237 0.76945,-0.81311 0.44952,-1.33928 -0.7022,-1.1549 -3.41411,-1.04992 -3.87456,0.14998 -0.15899,0.41435 0.0216,0.83664 0.53589,1.25309 1.00407,0.81304 1.84326,0.79452 2.88915,-0.0638 z m 7.8309,0.32221 c 0.77856,-0.41668 0.90576,-1.41535 0.26224,-2.05887 -0.5536,-0.5536 -2.51783,-0.5536 -3.07143,0 -1.44096,1.44097 0.84004,3.11272 2.80919,2.05887 z m 8.24053,-0.32221 c 0.68528,-0.56237 0.76944,-0.81311 0.44952,-1.33928 -0.53791,-0.88469 -1.84296,-1.01345 -2.67155,-0.26358 -1.80773,1.63597 0.31541,3.1675 2.22203,1.60286 z m 7.61205,0.27744 c 1.04576,-0.47648 1.25925,-1.97379 0.33216,-2.32955 -1.47195,-0.56484 -3.53618,1.1246 -2.66163,2.17837 0.55874,0.67325 1.10575,0.70875 2.32947,0.15118 z m 8.41764,-0.23446 c 0.68231,-0.5525 0.73939,-0.76478 0.38414,-1.42857 -0.56424,-1.05429 -1.85426,-0.99153 -2.91915,0.142 -0.8482,0.90288 -0.85172,0.93196 -0.17257,1.42857 0.93116,0.68089 1.744,0.63826 2.70758,-0.142 z m -3.64729,-5.00009 c -0.0854,-0.7391 -0.32971,-0.98342 -1.06881,-1.06881 -1.40442,-0.16225 -2.00495,1.07619 -1.00617,2.07498 0.99879,0.99878 2.23723,0.39826 2.07498,-1.00617 z m 7.72329,1.03176 c 0.97865,-1.08139 0.43373,-2.23758 -0.98951,-2.09952 -0.88855,0.0862 -1.15653,0.29626 -1.25339,0.98249 -0.0757,0.53653 0.12258,1.05257 0.51469,1.33928 0.83771,0.61256 0.9905,0.59291 1.72821,-0.22225 z"
       id="path4979"
       inkscape:connector-curvature="0"
       transform="scale(0.26458333)" />
  </g>
</svg>
